<svg width="171" height="88" viewBox="0 0 171 88" fill="none" xmlns="http://www.w3.org/2000/svg">
<g filter="url(#filter0_d_25_631)">
<rect x="2" y="34" width="50" height="50" rx="10" fill="#DEDFFF"/>
<rect x="4.5" y="36.5" width="45" height="45" rx="7.5" stroke="#272DD2" stroke-width="5"/>
</g>
<circle cx="39.5" cy="46.5" r="5" fill="#272DD2"/>
<circle r="5" transform="matrix(-1 0 0 1 14.5 46.5)" fill="#272DD2"/>
<circle cx="14.5" cy="71.5" r="5" fill="#272DD2"/>
<circle r="5" transform="matrix(-1 0 0 1 39.5 71.5)" fill="#272DD2"/>
<path d="M6.62 18.14C5.88667 18.14 5.06667 18.0267 4.16 17.8C4.01333 17.76 3.89333 17.68 3.8 17.56C3.70667 17.44 3.66 17.3067 3.66 17.16V5.14C3.66 4.96667 3.72 4.82 3.84 4.7C3.97333 4.58 4.13333 4.52 4.32 4.52C5.69333 4.52 7.07333 4.72667 8.46 5.14C9.86 5.54 11.0667 6.30667 12.08 7.44C13.1067 8.56 13.62 10.1133 13.62 12.1C13.62 13.4467 13.3133 14.5733 12.7 15.48C12.0867 16.3867 11.2533 17.06 10.2 17.5C9.14667 17.9267 7.95333 18.14 6.62 18.14ZM6.62 16.86C8.39333 16.86 9.78667 16.46 10.8 15.66C11.8133 14.8467 12.32 13.66 12.32 12.1C12.32 10.0067 11.64 8.46 10.28 7.46C8.92 6.46 7.14667 5.90667 4.96 5.8V16.66C5.66667 16.7933 6.22 16.86 6.62 16.86ZM16.9181 6.56C16.7448 6.56 16.5981 6.5 16.4781 6.38C16.3581 6.26 16.2981 6.11333 16.2981 5.94L16.3181 5.12C16.3181 4.96 16.3848 4.82 16.5181 4.7C16.6515 4.58 16.7981 4.52 16.9581 4.52C17.1181 4.52 17.2581 4.58667 17.3781 4.72C17.4981 4.84 17.5581 4.98 17.5581 5.14L17.5381 5.96C17.5381 6.13333 17.4715 6.28 17.3381 6.4C17.2181 6.50667 17.0781 6.56 16.9181 6.56ZM16.7981 18.12C16.6248 18.12 16.4715 18.06 16.3381 17.94C16.2048 17.8067 16.1381 17.6533 16.1381 17.48L16.2581 8.8C16.2581 8.62667 16.3248 8.47333 16.4581 8.34C16.5915 8.20667 16.7448 8.14 16.9181 8.14C17.0915 8.14 17.2381 8.20667 17.3581 8.34C17.4915 8.46 17.5581 8.61333 17.5581 8.8L17.4381 17.48C17.4381 17.6533 17.3715 17.8067 17.2381 17.94C17.1181 18.06 16.9715 18.12 16.7981 18.12ZM23.5094 18.12C22.856 18.12 22.2627 17.94 21.7294 17.58C21.2094 17.22 20.796 16.7 20.4894 16.02C20.1827 15.3267 20.0294 14.52 20.0294 13.6C20.0294 11.8933 20.4094 10.56 21.1694 9.6C21.9294 8.64 22.976 8.16 24.3094 8.16C25.2027 8.16 26.0894 8.39333 26.9694 8.86L27.0694 4.88C27.0694 4.70667 27.136 4.56 27.2694 4.44C27.4027 4.30667 27.556 4.24 27.7294 4.24C27.8894 4.24 28.0294 4.30667 28.1494 4.44C28.2827 4.57333 28.3494 4.72667 28.3494 4.9L28.0494 17.52C28.0494 17.6933 27.9827 17.84 27.8494 17.96C27.7294 18.0667 27.5827 18.12 27.4094 18.12C27.2227 18.12 27.0694 18.0533 26.9494 17.92C26.8294 17.7733 26.776 17.6067 26.7894 17.42L26.8094 16.6C25.7694 17.6133 24.6694 18.12 23.5094 18.12ZM23.5294 16.94C24.1427 16.94 24.7027 16.8133 25.2094 16.56C25.716 16.3067 26.1094 16.0067 26.3894 15.66C26.6827 15.3 26.836 14.9867 26.8494 14.72L26.9494 10.1C26.656 9.92667 26.2694 9.76 25.7894 9.6C25.3227 9.44 24.8494 9.36 24.3694 9.36C23.3427 9.36 22.5694 9.72667 22.0494 10.46C21.5294 11.1933 21.2694 12.22 21.2694 13.54C21.2694 14.6067 21.4694 15.44 21.8694 16.04C22.2827 16.64 22.836 16.94 23.5294 16.94ZM32.0548 6.56C31.8815 6.56 31.7348 6.5 31.6148 6.38C31.4948 6.26 31.4348 6.11333 31.4348 5.94L31.4548 5.12C31.4548 4.96 31.5215 4.82 31.6548 4.7C31.7882 4.58 31.9348 4.52 32.0948 4.52C32.2548 4.52 32.3948 4.58667 32.5148 4.72C32.6348 4.84 32.6948 4.98 32.6948 5.14L32.6748 5.96C32.6748 6.13333 32.6082 6.28 32.4748 6.4C32.3548 6.50667 32.2148 6.56 32.0548 6.56ZM31.9348 18.12C31.7615 18.12 31.6082 18.06 31.4748 17.94C31.3415 17.8067 31.2748 17.6533 31.2748 17.48L31.3948 8.8C31.3948 8.62667 31.4615 8.47333 31.5948 8.34C31.7282 8.20667 31.8815 8.14 32.0548 8.14C32.2282 8.14 32.3748 8.20667 32.4948 8.34C32.6282 8.46 32.6948 8.61333 32.6948 8.8L32.5748 17.48C32.5748 17.6533 32.5082 17.8067 32.3748 17.94C32.2548 18.06 32.1082 18.12 31.9348 18.12ZM42.3861 18.28C42.1861 18.28 42.0328 18.2133 41.9261 18.08C41.8194 17.96 41.7661 17.8067 41.7661 17.62V17.06C41.4061 17.38 40.9728 17.64 40.4661 17.84C39.9594 18.0267 39.4528 18.12 38.9461 18.12C38.2261 18.12 37.5794 17.94 37.0061 17.58C36.4328 17.22 35.9794 16.7133 35.6461 16.06C35.3261 15.3933 35.1661 14.64 35.1661 13.8C35.1661 12.8933 35.3528 12.0067 35.7261 11.14C36.1128 10.26 36.6661 9.54 37.3861 8.98C38.1194 8.42 38.9794 8.14 39.9661 8.14C40.5794 8.14 41.1194 8.22 41.5861 8.38C42.0528 8.54 42.5261 8.73333 43.0061 8.96V17.62C43.0061 17.8067 42.9461 17.96 42.8261 18.08C42.7061 18.2133 42.5594 18.28 42.3861 18.28ZM38.9461 16.94C39.4661 16.94 39.9861 16.82 40.5061 16.58C41.0261 16.3267 41.4261 16.06 41.7061 15.78L41.7861 9.72C41.5728 9.62667 41.2928 9.54 40.9461 9.46C40.6128 9.36667 40.2994 9.32 40.0061 9.32C39.3528 9.32 38.7528 9.51333 38.2061 9.9C37.6594 10.2867 37.2261 10.82 36.9061 11.5C36.5994 12.1667 36.4461 12.92 36.4461 13.76C36.4461 14.7333 36.6794 15.5067 37.1461 16.08C37.6128 16.6533 38.2128 16.94 38.9461 16.94ZM46.7586 18.12C46.5853 18.12 46.4319 18.06 46.2986 17.94C46.1786 17.82 46.1186 17.6867 46.1186 17.54V8.72C46.1186 8.54667 46.1786 8.40667 46.2986 8.3C46.4319 8.18 46.5853 8.12 46.7586 8.12C46.9319 8.12 47.0786 8.18 47.1986 8.3C47.3186 8.40667 47.3786 8.54667 47.3786 8.72V11.88C47.7653 10.68 48.2986 9.76 48.9786 9.12C49.6719 8.46667 50.4519 8.14 51.3186 8.14C52.0519 8.14 52.6319 8.32667 53.0586 8.7C53.4853 9.07333 53.7919 9.66667 53.9786 10.48C54.1653 11.28 54.2586 12.36 54.2586 13.72C54.2586 15.0533 54.2519 15.9267 54.2386 16.34V17.48C54.2386 17.6533 54.1786 17.8067 54.0586 17.94C53.9519 18.06 53.8119 18.12 53.6386 18.12C53.4786 18.12 53.3386 18.06 53.2186 17.94C53.0986 17.8067 53.0386 17.66 53.0386 17.5V16.38C53.0253 15.9667 53.0186 15.1067 53.0186 13.8C53.0186 12.56 52.9519 11.62 52.8186 10.98C52.6986 10.34 52.5053 9.90667 52.2386 9.68C51.9853 9.44 51.6186 9.32 51.1386 9.32C50.6853 9.32 50.2386 9.48667 49.7986 9.82C49.3586 10.1533 48.9719 10.6267 48.6386 11.24C48.1986 12.04 47.8786 12.7933 47.6786 13.5C47.4919 14.2067 47.3919 14.9333 47.3786 15.68L47.3586 17.46C47.3586 17.6467 47.2986 17.8067 47.1786 17.94C47.0719 18.06 46.9319 18.12 46.7586 18.12ZM63.7533 18.28C63.5533 18.28 63.3999 18.2133 63.2933 18.08C63.1866 17.96 63.1333 17.8067 63.1333 17.62V17.06C62.7733 17.38 62.3399 17.64 61.8333 17.84C61.3266 18.0267 60.8199 18.12 60.3133 18.12C59.5933 18.12 58.9466 17.94 58.3733 17.58C57.7999 17.22 57.3466 16.7133 57.0133 16.06C56.6933 15.3933 56.5333 14.64 56.5333 13.8C56.5333 12.8933 56.7199 12.0067 57.0933 11.14C57.4799 10.26 58.0333 9.54 58.7533 8.98C59.4866 8.42 60.3466 8.14 61.3333 8.14C61.9466 8.14 62.4866 8.22 62.9533 8.38C63.4199 8.54 63.8933 8.73333 64.3733 8.96V17.62C64.3733 17.8067 64.3133 17.96 64.1933 18.08C64.0733 18.2133 63.9266 18.28 63.7533 18.28ZM60.3133 16.94C60.8333 16.94 61.3533 16.82 61.8733 16.58C62.3933 16.3267 62.7933 16.06 63.0733 15.78L63.1533 9.72C62.9399 9.62667 62.6599 9.54 62.3133 9.46C61.9799 9.36667 61.6666 9.32 61.3733 9.32C60.7199 9.32 60.1199 9.51333 59.5733 9.9C59.0266 10.2867 58.5933 10.82 58.2733 11.5C57.9666 12.1667 57.8133 12.92 57.8133 13.76C57.8133 14.7333 58.0466 15.5067 58.5133 16.08C58.9799 16.6533 59.5799 16.94 60.3133 16.94ZM76.5655 18.12C75.6321 18.12 74.8921 17.92 74.3455 17.52C73.8121 17.12 73.4455 16.66 73.2455 16.14C73.0588 15.62 72.9655 15.14 72.9655 14.7C72.9655 14.5 73.0255 14.3333 73.1455 14.2C73.2655 14.0667 73.4255 14 73.6255 14C73.7988 14 73.9455 14.0667 74.0655 14.2C74.1988 14.32 74.2655 14.4733 74.2655 14.66C74.2655 15.1533 74.4188 15.64 74.7255 16.12C75.0321 16.6 75.6455 16.84 76.5655 16.84C77.4055 16.84 77.9788 16.64 78.2855 16.24C78.5921 15.8267 78.7455 15.38 78.7455 14.9V5.84H76.3855C76.1988 5.84 76.0455 5.78 75.9255 5.66C75.8055 5.54 75.7455 5.39333 75.7455 5.22C75.7455 5.06 75.8055 4.92667 75.9255 4.82C76.0588 4.7 76.2121 4.64 76.3855 4.64H80.4455C80.6188 4.64 80.7655 4.7 80.8855 4.82C81.0188 4.92667 81.0855 5.06 81.0855 5.22C81.0855 5.39333 81.0188 5.54 80.8855 5.66C80.7655 5.78 80.6255 5.84 80.4655 5.84H80.0255V14.9C80.0255 15.4467 79.9055 15.9667 79.6655 16.46C79.4255 16.9533 79.0455 17.3533 78.5255 17.66C78.0055 17.9667 77.3521 18.12 76.5655 18.12ZM86.7261 18.12C85.9661 18.12 85.2728 17.92 84.6461 17.52C84.0328 17.1067 83.5461 16.5533 83.1861 15.86C82.8394 15.1533 82.6661 14.3733 82.6661 13.52C82.6661 12.6133 82.8661 11.7467 83.2661 10.92C83.6794 10.0933 84.2461 9.42667 84.9661 8.92C85.6861 8.4 86.4794 8.14 87.3461 8.14C88.0928 8.14 88.7728 8.34667 89.3861 8.76C90.0128 9.16 90.4994 9.71333 90.8461 10.42C91.2061 11.1133 91.3861 11.88 91.3861 12.72C91.3861 13.68 91.1728 14.5733 90.7461 15.4C90.3194 16.2267 89.7461 16.8867 89.0261 17.38C88.3194 17.8733 87.5528 18.12 86.7261 18.12ZM86.8061 16.98C87.3794 16.98 87.9194 16.7867 88.4261 16.4C88.9328 16.0133 89.3394 15.5 89.6461 14.86C89.9528 14.22 90.1061 13.54 90.1061 12.82C90.1061 12.1933 89.9794 11.6133 89.7261 11.08C89.4728 10.5333 89.1261 10.1 88.6861 9.78C88.2594 9.44667 87.7794 9.28 87.2461 9.28C86.6594 9.28 86.1128 9.48 85.6061 9.88C85.1128 10.2667 84.7128 10.7867 84.4061 11.44C84.1128 12.08 83.9661 12.76 83.9661 13.48C83.9661 14.1733 84.0928 14.7867 84.3461 15.32C84.6128 15.84 84.9661 16.2467 85.4061 16.54C85.8461 16.8333 86.3128 16.98 86.8061 16.98ZM94.532 18.12C94.3587 18.12 94.2054 18.06 94.072 17.94C93.952 17.82 93.892 17.6867 93.892 17.54V8.72C93.892 8.54667 93.952 8.40667 94.072 8.3C94.2054 8.18 94.3587 8.12 94.532 8.12C94.7054 8.12 94.852 8.18 94.972 8.3C95.092 8.40667 95.152 8.54667 95.152 8.72V11.88C95.5387 10.68 96.072 9.76 96.752 9.12C97.4454 8.46667 98.2254 8.14 99.092 8.14C99.8254 8.14 100.405 8.32667 100.832 8.7C101.259 9.07333 101.565 9.66667 101.752 10.48C101.939 11.28 102.032 12.36 102.032 13.72C102.032 15.0533 102.025 15.9267 102.012 16.34V17.48C102.012 17.6533 101.952 17.8067 101.832 17.94C101.725 18.06 101.585 18.12 101.412 18.12C101.252 18.12 101.112 18.06 100.992 17.94C100.872 17.8067 100.812 17.66 100.812 17.5V16.38C100.799 15.9667 100.792 15.1067 100.792 13.8C100.792 12.56 100.725 11.62 100.592 10.98C100.472 10.34 100.279 9.90667 100.012 9.68C99.7587 9.44 99.392 9.32 98.912 9.32C98.4587 9.32 98.012 9.48667 97.572 9.82C97.132 10.1533 96.7454 10.6267 96.412 11.24C95.972 12.04 95.652 12.7933 95.452 13.5C95.2654 14.2067 95.1654 14.9333 95.152 15.68L95.132 17.46C95.132 17.6467 95.072 17.8067 94.952 17.94C94.8454 18.06 94.7054 18.12 94.532 18.12ZM109.287 18.12C108.313 18.12 107.447 17.9067 106.687 17.48C105.927 17.04 105.34 16.4533 104.927 15.72C104.513 14.9867 104.307 14.1867 104.307 13.32C104.307 12.4133 104.493 11.5667 104.867 10.78C105.253 9.98 105.787 9.34 106.467 8.86C107.147 8.38 107.927 8.14 108.807 8.14C109.607 8.14 110.287 8.29333 110.847 8.6C111.42 8.90667 111.847 9.27333 112.127 9.7C112.42 10.1267 112.567 10.5067 112.567 10.84C112.567 11.08 112.407 11.2933 112.087 11.48L105.887 15.02C106.22 15.66 106.673 16.1467 107.247 16.48C107.82 16.8 108.493 16.96 109.267 16.96C109.693 16.96 110.14 16.8533 110.607 16.64C111.087 16.4267 111.467 16.1733 111.747 15.88C111.84 15.7467 111.973 15.68 112.147 15.68C112.32 15.68 112.46 15.74 112.567 15.86C112.687 15.9667 112.747 16.1067 112.747 16.28C112.747 16.4133 112.693 16.5467 112.587 16.68C112.227 17.0933 111.733 17.44 111.107 17.72C110.493 17.9867 109.887 18.12 109.287 18.12ZM111.327 10.68C111.14 10.2267 110.847 9.88667 110.447 9.66C110.047 9.43333 109.507 9.32 108.827 9.32C108.187 9.32 107.613 9.5 107.107 9.86C106.6 10.2067 106.2 10.68 105.907 11.28C105.627 11.88 105.48 12.54 105.467 13.26C105.467 13.5267 105.48 13.74 105.507 13.9L111.327 10.68ZM117.526 18.16C116.766 18.16 116.106 18.0067 115.546 17.7C115 17.38 114.58 17.0133 114.286 16.6C114.006 16.1733 113.866 15.8133 113.866 15.52C113.866 15.3467 113.92 15.2067 114.026 15.1C114.146 14.98 114.293 14.92 114.466 14.92C114.76 14.92 114.946 15.06 115.026 15.34C115.213 15.8733 115.526 16.2867 115.966 16.58C116.406 16.8733 116.946 17.02 117.586 17.02C118.226 17.02 118.753 16.8467 119.166 16.5C119.58 16.1533 119.786 15.74 119.786 15.26C119.786 14.98 119.72 14.7467 119.586 14.56C119.466 14.36 119.24 14.1733 118.906 14C118.586 13.8267 118.113 13.6467 117.486 13.46C116.406 13.1267 115.626 12.74 115.146 12.3C114.666 11.86 114.426 11.28 114.426 10.56C114.426 9.84 114.72 9.26 115.306 8.82C115.906 8.36667 116.76 8.14 117.866 8.14C118.866 8.14 119.633 8.34667 120.166 8.76C120.713 9.16 120.986 9.71333 120.986 10.42C120.986 10.74 120.933 10.9867 120.826 11.16C120.72 11.32 120.566 11.4 120.366 11.4C120.193 11.4 120.046 11.3467 119.926 11.24C119.806 11.12 119.746 10.9867 119.746 10.84C119.746 10.7733 119.753 10.7 119.766 10.62C119.793 10.54 119.806 10.4667 119.806 10.4C119.806 10.04 119.646 9.76 119.326 9.56C119.006 9.34667 118.52 9.24 117.866 9.24C117.146 9.24 116.586 9.36 116.186 9.6C115.8 9.82667 115.606 10.1533 115.606 10.58C115.606 10.9933 115.773 11.32 116.106 11.56C116.453 11.8 117.046 12.06 117.886 12.34C118.686 12.6067 119.3 12.86 119.726 13.1C120.166 13.34 120.48 13.6267 120.666 13.96C120.866 14.28 120.966 14.6933 120.966 15.2C120.966 15.6933 120.82 16.1667 120.526 16.62C120.246 17.0733 119.846 17.4467 119.326 17.74C118.806 18.02 118.206 18.16 117.526 18.16Z" fill="black"/>
<path d="M66.328 67C66.12 67 65.944 66.928 65.8 66.784C65.656 66.64 65.584 66.464 65.584 66.256C65.584 66.048 65.656 65.872 65.8 65.728C65.944 65.568 66.12 65.488 66.328 65.488H68.344L68.536 53.464L66.808 55.312C66.664 55.472 66.48 55.552 66.256 55.552C66.048 55.552 65.872 55.48 65.728 55.336C65.584 55.176 65.512 54.992 65.512 54.784C65.512 54.592 65.584 54.424 65.728 54.28L68.752 50.992C68.816 50.928 68.896 50.872 68.992 50.824C69.104 50.776 69.2 50.752 69.28 50.752C69.504 50.752 69.688 50.832 69.832 50.992C69.976 51.136 70.048 51.312 70.048 51.52L69.856 65.488H71.44C71.68 65.488 71.872 65.568 72.016 65.728C72.16 65.872 72.232 66.048 72.232 66.256C72.232 66.464 72.152 66.64 71.992 66.784C71.848 66.928 71.68 67 71.488 67H66.328ZM75.8436 67C75.6356 67 75.4596 66.928 75.3156 66.784C75.1716 66.64 75.0996 66.464 75.0996 66.256C75.0996 66.048 75.1716 65.872 75.3156 65.728C75.4596 65.568 75.6356 65.488 75.8436 65.488H77.8596L78.0516 53.464L76.3236 55.312C76.1796 55.472 75.9956 55.552 75.7716 55.552C75.5636 55.552 75.3876 55.48 75.2436 55.336C75.0996 55.176 75.0276 54.992 75.0276 54.784C75.0276 54.592 75.0996 54.424 75.2436 54.28L78.2676 50.992C78.3316 50.928 78.4116 50.872 78.5076 50.824C78.6196 50.776 78.7156 50.752 78.7956 50.752C79.0196 50.752 79.2036 50.832 79.3476 50.992C79.4916 51.136 79.5636 51.312 79.5636 51.52L79.3716 65.488H80.9556C81.1956 65.488 81.3876 65.568 81.5316 65.728C81.6756 65.872 81.7476 66.048 81.7476 66.256C81.7476 66.464 81.6676 66.64 81.5076 66.784C81.3636 66.928 81.1956 67 81.0036 67H75.8436ZM96.3749 65.128C96.1669 65.128 95.9909 65.064 95.8469 64.936C95.7029 64.792 95.6309 64.616 95.6309 64.408V61.84H93.0629C92.8549 61.84 92.6789 61.776 92.5349 61.648C92.3909 61.504 92.3189 61.328 92.3189 61.12C92.3189 60.912 92.3909 60.744 92.5349 60.616C92.6789 60.472 92.8549 60.4 93.0629 60.4H95.6309V58.072C95.6309 57.864 95.7029 57.696 95.8469 57.568C95.9909 57.424 96.1669 57.352 96.3749 57.352C96.5829 57.352 96.7509 57.424 96.8789 57.568C97.0229 57.696 97.0949 57.864 97.0949 58.072V60.4H99.7109C99.9029 60.4 100.071 60.472 100.215 60.616C100.359 60.744 100.431 60.912 100.431 61.12C100.431 61.328 100.359 61.504 100.215 61.648C100.071 61.776 99.9029 61.84 99.7109 61.84H97.0949V64.408C97.0949 64.616 97.0229 64.792 96.8789 64.936C96.7509 65.064 96.5829 65.128 96.3749 65.128ZM117.887 67.144C117.679 67.144 117.495 67.072 117.335 66.928C117.191 66.768 117.119 66.592 117.119 66.4V63.208L111.287 63.112C111.079 63.112 110.903 63.04 110.759 62.896C110.615 62.736 110.543 62.56 110.543 62.368C110.543 62.224 110.583 62.088 110.663 61.96L117.215 51.16C117.375 50.904 117.599 50.776 117.887 50.776C118.111 50.776 118.287 50.848 118.415 50.992C118.559 51.12 118.631 51.296 118.631 51.52V61.72L119.375 61.744C119.567 61.744 119.735 61.816 119.879 61.96C120.023 62.104 120.095 62.28 120.095 62.488C120.095 62.696 120.023 62.88 119.879 63.04C119.735 63.184 119.567 63.256 119.375 63.256L118.631 63.232V66.4C118.631 66.592 118.551 66.768 118.391 66.928C118.247 67.072 118.079 67.144 117.887 67.144ZM117.119 54.208L112.631 61.624L117.119 61.696V54.208ZM131.527 59.992C131.319 59.992 131.143 59.928 130.999 59.8C130.855 59.656 130.783 59.48 130.783 59.272C130.783 59.064 130.855 58.888 130.999 58.744C131.143 58.584 131.319 58.504 131.527 58.504H138.271C138.479 58.504 138.655 58.584 138.799 58.744C138.959 58.888 139.039 59.064 139.039 59.272C139.039 59.48 138.959 59.656 138.799 59.8C138.655 59.928 138.479 59.992 138.271 59.992H131.527ZM131.527 63.784C131.319 63.784 131.143 63.72 130.999 63.592C130.855 63.448 130.783 63.272 130.783 63.064C130.783 62.856 130.855 62.68 130.999 62.536C131.143 62.392 131.319 62.32 131.527 62.32H138.271C138.479 62.32 138.655 62.392 138.799 62.536C138.959 62.68 139.039 62.856 139.039 63.064C139.039 63.272 138.959 63.448 138.799 63.592C138.655 63.72 138.479 63.784 138.271 63.784H131.527ZM150.797 67C150.589 67 150.413 66.928 150.269 66.784C150.125 66.64 150.053 66.464 150.053 66.256C150.053 66.048 150.125 65.872 150.269 65.728C150.413 65.568 150.589 65.488 150.797 65.488H152.813L153.005 53.464L151.277 55.312C151.133 55.472 150.949 55.552 150.725 55.552C150.517 55.552 150.341 55.48 150.197 55.336C150.053 55.176 149.981 54.992 149.981 54.784C149.981 54.592 150.053 54.424 150.197 54.28L153.221 50.992C153.285 50.928 153.365 50.872 153.461 50.824C153.573 50.776 153.669 50.752 153.749 50.752C153.973 50.752 154.157 50.832 154.301 50.992C154.445 51.136 154.517 51.312 154.517 51.52L154.325 65.488H155.909C156.149 65.488 156.341 65.568 156.485 65.728C156.629 65.872 156.701 66.048 156.701 66.256C156.701 66.464 156.621 66.64 156.461 66.784C156.317 66.928 156.149 67 155.957 67H150.797ZM164.032 67.144C163.2 67.144 162.448 66.992 161.776 66.688C161.104 66.368 160.56 66.008 160.144 65.608C159.728 65.192 159.448 64.824 159.304 64.504C159.24 64.424 159.208 64.304 159.208 64.144C159.208 63.936 159.28 63.76 159.424 63.616C159.584 63.472 159.768 63.4 159.976 63.4C160.136 63.4 160.256 63.432 160.336 63.496C160.432 63.544 160.528 63.64 160.624 63.784C161.104 64.392 161.608 64.856 162.136 65.176C162.664 65.48 163.296 65.632 164.032 65.632C164.72 65.632 165.368 65.424 165.976 65.008C166.6 64.576 167.096 64.008 167.464 63.304C167.832 62.584 168.016 61.816 168.016 61C168.016 59.896 167.712 58.952 167.104 58.168C166.512 57.368 165.648 56.968 164.512 56.968C163.728 56.968 163.072 57.12 162.544 57.424C162.032 57.728 161.576 58.08 161.176 58.48C161 58.656 160.808 58.744 160.6 58.744C160.36 58.744 160.16 58.664 160 58.504C159.856 58.328 159.8 58.12 159.832 57.88L160.456 51.664C160.472 51.472 160.56 51.312 160.72 51.184C160.88 51.056 161.048 50.992 161.224 50.992H168.088C168.296 50.992 168.472 51.064 168.616 51.208C168.776 51.352 168.856 51.528 168.856 51.736C168.856 51.944 168.776 52.12 168.616 52.264C168.472 52.408 168.296 52.48 168.088 52.48H161.896L161.512 56.296C162.504 55.752 163.504 55.48 164.512 55.48C165.456 55.48 166.304 55.712 167.056 56.176C167.824 56.64 168.424 57.288 168.856 58.12C169.288 58.952 169.504 59.912 169.504 61C169.504 62.104 169.248 63.128 168.736 64.072C168.224 65.016 167.544 65.768 166.696 66.328C165.864 66.872 164.976 67.144 164.032 67.144Z" fill="black"/>
<defs>
<filter id="filter0_d_25_631" x="0" y="34" width="54" height="54" filterUnits="userSpaceOnUse" color-interpolation-filters="sRGB">
<feFlood flood-opacity="0" result="BackgroundImageFix"/>
<feColorMatrix in="SourceAlpha" type="matrix" values="0 0 0 0 0 0 0 0 0 0 0 0 0 0 0 0 0 0 127 0" result="hardAlpha"/>
<feOffset dy="2"/>
<feGaussianBlur stdDeviation="1"/>
<feComposite in2="hardAlpha" operator="out"/>
<feColorMatrix type="matrix" values="0 0 0 0 0 0 0 0 0 0 0 0 0 0 0 0 0 0 0.25 0"/>
<feBlend mode="normal" in2="BackgroundImageFix" result="effect1_dropShadow_25_631"/>
<feBlend mode="normal" in="SourceGraphic" in2="effect1_dropShadow_25_631" result="shape"/>
</filter>
</defs>
</svg>
