<svg width="165" height="88" viewBox="0 0 165 88" fill="none" xmlns="http://www.w3.org/2000/svg">
<g filter="url(#filter0_d_25_632)">
<rect x="2" y="34" width="50" height="50" rx="10" fill="#DEDFFF"/>
<rect x="4.5" y="36.5" width="45" height="45" rx="7.5" stroke="#272DD2" stroke-width="5"/>
</g>
<circle cx="39.5" cy="46.5" r="5" fill="#272DD2"/>
<circle cx="39.5" cy="59" r="5" fill="#272DD2"/>
<circle r="5" transform="matrix(-1 0 0 1 14.5 46.5)" fill="#272DD2"/>
<circle r="5" transform="matrix(-1 0 0 1 14.5 59)" fill="#272DD2"/>
<circle cx="14.5" cy="71.5" r="5" fill="#272DD2"/>
<circle r="5" transform="matrix(-1 0 0 1 39.5 71.5)" fill="#272DD2"/>
<path d="M4.32 18C4.14667 18 3.99333 17.9333 3.86 17.8C3.72667 17.6667 3.66 17.5133 3.66 17.34V5.24C3.66 5.06667 3.72 4.92 3.84 4.8C3.97333 4.66667 4.13333 4.6 4.32 4.6H12.78C12.9667 4.6 13.12 4.66 13.24 4.78C13.36 4.9 13.42 5.05333 13.42 5.24C13.42 5.41333 13.3533 5.56667 13.22 5.7C13.1 5.82 12.9533 5.88 12.78 5.88H4.94V10.38H11.82C12.0067 10.38 12.1533 10.44 12.26 10.56C12.38 10.6667 12.44 10.8133 12.44 11C12.44 11.1867 12.38 11.3467 12.26 11.48C12.14 11.6 11.9933 11.66 11.82 11.66H4.94V16.72H12.74C12.9267 16.72 13.08 16.78 13.2 16.9C13.32 17.02 13.38 17.1667 13.38 17.34C13.38 17.5267 13.3133 17.6867 13.18 17.82C13.06 17.94 12.9133 18 12.74 18H4.32ZM18.1708 18.16C17.4108 18.16 16.7508 18.0067 16.1908 17.7C15.6441 17.38 15.2241 17.0133 14.9308 16.6C14.6508 16.1733 14.5108 15.8133 14.5108 15.52C14.5108 15.3467 14.5641 15.2067 14.6708 15.1C14.7908 14.98 14.9374 14.92 15.1108 14.92C15.4041 14.92 15.5908 15.06 15.6708 15.34C15.8574 15.8733 16.1708 16.2867 16.6108 16.58C17.0508 16.8733 17.5908 17.02 18.2308 17.02C18.8708 17.02 19.3974 16.8467 19.8108 16.5C20.2241 16.1533 20.4308 15.74 20.4308 15.26C20.4308 14.98 20.3641 14.7467 20.2308 14.56C20.1108 14.36 19.8841 14.1733 19.5508 14C19.2308 13.8267 18.7574 13.6467 18.1308 13.46C17.0508 13.1267 16.2708 12.74 15.7908 12.3C15.3108 11.86 15.0708 11.28 15.0708 10.56C15.0708 9.84 15.3641 9.26 15.9508 8.82C16.5508 8.36667 17.4041 8.14 18.5108 8.14C19.5108 8.14 20.2774 8.34667 20.8108 8.76C21.3574 9.16 21.6308 9.71333 21.6308 10.42C21.6308 10.74 21.5774 10.9867 21.4708 11.16C21.3641 11.32 21.2108 11.4 21.0108 11.4C20.8374 11.4 20.6908 11.3467 20.5708 11.24C20.4508 11.12 20.3908 10.9867 20.3908 10.84C20.3908 10.7733 20.3974 10.7 20.4108 10.62C20.4374 10.54 20.4508 10.4667 20.4508 10.4C20.4508 10.04 20.2908 9.76 19.9708 9.56C19.6508 9.34667 19.1641 9.24 18.5108 9.24C17.7908 9.24 17.2308 9.36 16.8308 9.6C16.4441 9.82667 16.2508 10.1533 16.2508 10.58C16.2508 10.9933 16.4174 11.32 16.7508 11.56C17.0974 11.8 17.6908 12.06 18.5308 12.34C19.3308 12.6067 19.9441 12.86 20.3708 13.1C20.8108 13.34 21.1241 13.6267 21.3108 13.96C21.5108 14.28 21.6108 14.6933 21.6108 15.2C21.6108 15.6933 21.4641 16.1667 21.1708 16.62C20.8908 17.0733 20.4908 17.4467 19.9708 17.74C19.4508 18.02 18.8508 18.16 18.1708 18.16ZM25.0711 18.14C24.8978 18.14 24.7444 18.08 24.6111 17.96C24.4911 17.84 24.4311 17.7 24.4311 17.54V9.38H22.2111C22.0378 9.38 21.8911 9.32 21.7711 9.2C21.6511 9.06667 21.5911 8.91333 21.5911 8.74C21.5911 8.55333 21.6578 8.40667 21.7911 8.3C21.9244 8.18 22.0778 8.12 22.2511 8.12H24.4311V5.38C24.4311 5.20667 24.4911 5.06 24.6111 4.94C24.7444 4.80667 24.8978 4.74 25.0711 4.74C25.2578 4.74 25.4044 4.80667 25.5111 4.94C25.6311 5.06 25.6911 5.20667 25.6911 5.38V8.12H27.9311C28.1178 8.12 28.2711 8.18 28.3911 8.3C28.5111 8.42 28.5711 8.56667 28.5711 8.74C28.5711 8.91333 28.5044 9.06667 28.3711 9.2C28.2511 9.32 28.1044 9.38 27.9311 9.38H25.6911V17.54C25.6911 17.7 25.6244 17.84 25.4911 17.96C25.3711 18.08 25.2311 18.14 25.0711 18.14ZM35.6478 18.28C35.4478 18.28 35.2945 18.2133 35.1878 18.08C35.0811 17.96 35.0278 17.8067 35.0278 17.62V17.06C34.6678 17.38 34.2345 17.64 33.7278 17.84C33.2211 18.0267 32.7145 18.12 32.2078 18.12C31.4878 18.12 30.8411 17.94 30.2678 17.58C29.6945 17.22 29.2411 16.7133 28.9078 16.06C28.5878 15.3933 28.4278 14.64 28.4278 13.8C28.4278 12.8933 28.6145 12.0067 28.9878 11.14C29.3745 10.26 29.9278 9.54 30.6478 8.98C31.3811 8.42 32.2411 8.14 33.2278 8.14C33.8411 8.14 34.3811 8.22 34.8478 8.38C35.3145 8.54 35.7878 8.73333 36.2678 8.96V17.62C36.2678 17.8067 36.2078 17.96 36.0878 18.08C35.9678 18.2133 35.8211 18.28 35.6478 18.28ZM32.2078 16.94C32.7278 16.94 33.2478 16.82 33.7678 16.58C34.2878 16.3267 34.6878 16.06 34.9678 15.78L35.0478 9.72C34.8345 9.62667 34.5545 9.54 34.2078 9.46C33.8745 9.36667 33.5611 9.32 33.2678 9.32C32.6145 9.32 32.0145 9.51333 31.4678 9.9C30.9211 10.2867 30.4878 10.82 30.1678 11.5C29.8611 12.1667 29.7078 12.92 29.7078 13.76C29.7078 14.7333 29.9411 15.5067 30.4078 16.08C30.8745 16.6533 31.4745 16.94 32.2078 16.94ZM32.7078 6.94C32.5478 6.94 32.4011 6.88 32.2678 6.76C32.1478 6.64 32.0878 6.5 32.0878 6.34C32.0878 6.22 32.1411 6.08667 32.2478 5.94L34.3078 3.38C34.5211 3.16667 34.7345 3.06 34.9478 3.06C35.1345 3.06 35.3078 3.14 35.4678 3.3C35.6278 3.44667 35.7078 3.61333 35.7078 3.8C35.7078 4.01333 35.6278 4.2 35.4678 4.36L33.1478 6.74C33.0145 6.87333 32.8678 6.94 32.7078 6.94ZM40.5203 18.14C40.347 18.14 40.1936 18.08 40.0603 17.96C39.9403 17.84 39.8803 17.7 39.8803 17.54V9.38H37.6603C37.487 9.38 37.3403 9.32 37.2203 9.2C37.1003 9.06667 37.0403 8.91333 37.0403 8.74C37.0403 8.55333 37.107 8.40667 37.2403 8.3C37.3736 8.18 37.527 8.12 37.7003 8.12H39.8803V5.38C39.8803 5.20667 39.9403 5.06 40.0603 4.94C40.1936 4.80667 40.347 4.74 40.5203 4.74C40.707 4.74 40.8536 4.80667 40.9603 4.94C41.0803 5.06 41.1403 5.20667 41.1403 5.38V8.12H43.3803C43.567 8.12 43.7203 8.18 43.8403 8.3C43.9603 8.42 44.0203 8.56667 44.0203 8.74C44.0203 8.91333 43.9536 9.06667 43.8203 9.2C43.7003 9.32 43.5536 9.38 43.3803 9.38H41.1403V17.54C41.1403 17.7 41.0736 17.84 40.9403 17.96C40.8203 18.08 40.6803 18.14 40.5203 18.14ZM47.823 18.18C47.0763 18.18 46.483 18.0133 46.043 17.68C45.6163 17.3467 45.303 16.78 45.103 15.98C44.903 15.18 44.803 14.0667 44.803 12.64C44.803 11.1067 44.883 9.84667 45.043 8.86C45.083 8.59333 45.1496 8.40667 45.243 8.3C45.3496 8.18 45.4963 8.12 45.683 8.12C45.843 8.12 45.9763 8.17333 46.083 8.28C46.203 8.38667 46.263 8.53333 46.263 8.72C46.263 8.92 46.243 9.18 46.203 9.5C46.083 10.46 46.023 11.6667 46.023 13.12C46.023 14.52 46.163 15.5267 46.443 16.14C46.723 16.7533 47.1896 17.06 47.843 17.06C48.443 17.06 49.043 16.9067 49.643 16.6C50.2563 16.28 50.6896 15.9733 50.943 15.68C51.103 15.4933 51.183 15.1933 51.183 14.78L51.263 8.68C51.263 8.52 51.323 8.38667 51.443 8.28C51.563 8.17333 51.703 8.12 51.863 8.12C52.023 8.12 52.163 8.17333 52.283 8.28C52.403 8.38667 52.463 8.52 52.463 8.68V17.5C52.463 17.66 52.3963 17.8067 52.263 17.94C52.1296 18.06 51.9763 18.12 51.803 18.12C51.5896 18.12 51.4163 18.0533 51.283 17.92C51.163 17.7867 51.103 17.62 51.103 17.42V16.66C50.8096 17.0467 50.3563 17.4 49.743 17.72C49.143 18.0267 48.503 18.18 47.823 18.18ZM61.8978 18.28C61.6978 18.28 61.5445 18.2133 61.4378 18.08C61.3311 17.96 61.2778 17.8067 61.2778 17.62V17.06C60.9178 17.38 60.4845 17.64 59.9778 17.84C59.4711 18.0267 58.9645 18.12 58.4578 18.12C57.7378 18.12 57.0911 17.94 56.5178 17.58C55.9445 17.22 55.4911 16.7133 55.1578 16.06C54.8378 15.3933 54.6778 14.64 54.6778 13.8C54.6778 12.8933 54.8645 12.0067 55.2378 11.14C55.6245 10.26 56.1778 9.54 56.8978 8.98C57.6311 8.42 58.4911 8.14 59.4778 8.14C60.0911 8.14 60.6311 8.22 61.0978 8.38C61.5645 8.54 62.0378 8.73333 62.5178 8.96V17.62C62.5178 17.8067 62.4578 17.96 62.3378 18.08C62.2178 18.2133 62.0711 18.28 61.8978 18.28ZM58.4578 16.94C58.9778 16.94 59.4978 16.82 60.0178 16.58C60.5378 16.3267 60.9378 16.06 61.2178 15.78L61.2978 9.72C61.0845 9.62667 60.8045 9.54 60.4578 9.46C60.1245 9.36667 59.8111 9.32 59.5178 9.32C58.8645 9.32 58.2645 9.51333 57.7178 9.9C57.1711 10.2867 56.7378 10.82 56.4178 11.5C56.1111 12.1667 55.9578 12.92 55.9578 13.76C55.9578 14.7333 56.1911 15.5067 56.6578 16.08C57.1245 16.6533 57.7245 16.94 58.4578 16.94ZM81.15 18.14C81.0167 18.14 80.89 18.1 80.77 18.02C80.6633 17.94 80.59 17.8333 80.55 17.7L78.91 12.94L73.93 14.04L72.47 17.72C72.43 17.84 72.3567 17.9333 72.25 18C72.1433 18.08 72.0233 18.12 71.89 18.12C71.7167 18.12 71.57 18.06 71.45 17.94C71.3433 17.82 71.29 17.6667 71.29 17.48C71.29 17.4 71.3167 17.2867 71.37 17.14L72.47 14.32C72.35 14.36 72.23 14.38 72.11 14.38C71.95 14.3667 71.8167 14.3067 71.71 14.2C71.6033 14.08 71.55 13.9333 71.55 13.76C71.55 13.6133 71.5967 13.48 71.69 13.36C71.7833 13.24 71.8967 13.1667 72.03 13.14L73.03 12.92L76.23 4.74C76.2833 4.62 76.37 4.52667 76.49 4.46C76.61 4.38 76.73 4.34 76.85 4.34C76.9833 4.34 77.1033 4.38 77.21 4.46C77.3167 4.52667 77.3967 4.62667 77.45 4.76L81.67 17.04C81.75 17.28 81.79 17.44 81.79 17.52C81.79 17.68 81.73 17.8267 81.61 17.96C81.49 18.08 81.3367 18.14 81.15 18.14ZM78.47 11.74L76.77 6.76L74.47 12.6L78.47 11.74ZM86.7711 18.12C86.1178 18.12 85.5244 17.94 84.9911 17.58C84.4711 17.22 84.0578 16.7 83.7511 16.02C83.4444 15.3267 83.2911 14.52 83.2911 13.6C83.2911 11.8933 83.6711 10.56 84.4311 9.6C85.1911 8.64 86.2378 8.16 87.5711 8.16C88.4644 8.16 89.3511 8.39333 90.2311 8.86L90.3311 4.88C90.3311 4.70667 90.3978 4.56 90.5311 4.44C90.6644 4.30667 90.8178 4.24 90.9911 4.24C91.1511 4.24 91.2911 4.30667 91.4111 4.44C91.5444 4.57333 91.6111 4.72667 91.6111 4.9L91.3111 17.52C91.3111 17.6933 91.2444 17.84 91.1111 17.96C90.9911 18.0667 90.8444 18.12 90.6711 18.12C90.4844 18.12 90.3311 18.0533 90.2111 17.92C90.0911 17.7733 90.0378 17.6067 90.0511 17.42L90.0711 16.6C89.0311 17.6133 87.9311 18.12 86.7711 18.12ZM86.7911 16.94C87.4044 16.94 87.9644 16.8133 88.4711 16.56C88.9778 16.3067 89.3711 16.0067 89.6511 15.66C89.9444 15.3 90.0978 14.9867 90.1111 14.72L90.2111 10.1C89.9178 9.92667 89.5311 9.76 89.0511 9.6C88.5844 9.44 88.1111 9.36 87.6311 9.36C86.6044 9.36 85.8311 9.72667 85.3111 10.46C84.7911 11.1933 84.5311 12.22 84.5311 13.54C84.5311 14.6067 84.7311 15.44 85.1311 16.04C85.5444 16.64 86.0978 16.94 86.7911 16.94ZM97.9566 18.12C97.1966 18.12 96.5032 17.92 95.8766 17.52C95.2632 17.1067 94.7766 16.5533 94.4166 15.86C94.0699 15.1533 93.8966 14.3733 93.8966 13.52C93.8966 12.6133 94.0966 11.7467 94.4966 10.92C94.9099 10.0933 95.4766 9.42667 96.1966 8.92C96.9166 8.4 97.7099 8.14 98.5766 8.14C99.3232 8.14 100.003 8.34667 100.617 8.76C101.243 9.16 101.73 9.71333 102.077 10.42C102.437 11.1133 102.617 11.88 102.617 12.72C102.617 13.68 102.403 14.5733 101.977 15.4C101.55 16.2267 100.977 16.8867 100.257 17.38C99.5499 17.8733 98.7832 18.12 97.9566 18.12ZM98.0366 16.98C98.6099 16.98 99.1499 16.7867 99.6566 16.4C100.163 16.0133 100.57 15.5 100.877 14.86C101.183 14.22 101.337 13.54 101.337 12.82C101.337 12.1933 101.21 11.6133 100.957 11.08C100.703 10.5333 100.357 10.1 99.9166 9.78C99.4899 9.44667 99.0099 9.28 98.4766 9.28C97.8899 9.28 97.3432 9.48 96.8366 9.88C96.3432 10.2667 95.9432 10.7867 95.6366 11.44C95.3432 12.08 95.1966 12.76 95.1966 13.48C95.1966 14.1733 95.3232 14.7867 95.5766 15.32C95.8432 15.84 96.1966 16.2467 96.6366 16.54C97.0766 16.8333 97.5432 16.98 98.0366 16.98ZM105.903 6.56C105.729 6.56 105.583 6.5 105.463 6.38C105.343 6.26 105.283 6.11333 105.283 5.94L105.303 5.12C105.303 4.96 105.369 4.82 105.503 4.7C105.636 4.58 105.783 4.52 105.943 4.52C106.103 4.52 106.243 4.58667 106.363 4.72C106.483 4.84 106.543 4.98 106.543 5.14L106.523 5.96C106.523 6.13333 106.456 6.28 106.323 6.4C106.203 6.50667 106.063 6.56 105.903 6.56ZM105.783 18.12C105.609 18.12 105.456 18.06 105.323 17.94C105.189 17.8067 105.123 17.6533 105.123 17.48L105.243 8.8C105.243 8.62667 105.309 8.47333 105.443 8.34C105.576 8.20667 105.729 8.14 105.903 8.14C106.076 8.14 106.223 8.20667 106.343 8.34C106.476 8.46 106.543 8.61333 106.543 8.8L106.423 17.48C106.423 17.6533 106.356 17.8067 106.223 17.94C106.103 18.06 105.956 18.12 105.783 18.12ZM112.494 18.12C111.84 18.12 111.247 17.94 110.714 17.58C110.194 17.22 109.78 16.7 109.474 16.02C109.167 15.3267 109.014 14.52 109.014 13.6C109.014 11.8933 109.394 10.56 110.154 9.6C110.914 8.64 111.96 8.16 113.294 8.16C114.187 8.16 115.074 8.39333 115.954 8.86L116.054 4.88C116.054 4.70667 116.12 4.56 116.254 4.44C116.387 4.30667 116.54 4.24 116.714 4.24C116.874 4.24 117.014 4.30667 117.134 4.44C117.267 4.57333 117.334 4.72667 117.334 4.9L117.034 17.52C117.034 17.6933 116.967 17.84 116.834 17.96C116.714 18.0667 116.567 18.12 116.394 18.12C116.207 18.12 116.054 18.0533 115.934 17.92C115.814 17.7733 115.76 17.6067 115.774 17.42L115.794 16.6C114.754 17.6133 113.654 18.12 112.494 18.12ZM112.514 16.94C113.127 16.94 113.687 16.8133 114.194 16.56C114.7 16.3067 115.094 16.0067 115.374 15.66C115.667 15.3 115.82 14.9867 115.834 14.72L115.934 10.1C115.64 9.92667 115.254 9.76 114.774 9.6C114.307 9.44 113.834 9.36 113.354 9.36C112.327 9.36 111.554 9.72667 111.034 10.46C110.514 11.1933 110.254 12.22 110.254 13.54C110.254 14.6067 110.454 15.44 110.854 16.04C111.267 16.64 111.82 16.94 112.514 16.94ZM126.839 18.28C126.639 18.28 126.486 18.2133 126.379 18.08C126.273 17.96 126.219 17.8067 126.219 17.62V17.06C125.859 17.38 125.426 17.64 124.919 17.84C124.413 18.0267 123.906 18.12 123.399 18.12C122.679 18.12 122.033 17.94 121.459 17.58C120.886 17.22 120.433 16.7133 120.099 16.06C119.779 15.3933 119.619 14.64 119.619 13.8C119.619 12.8933 119.806 12.0067 120.179 11.14C120.566 10.26 121.119 9.54 121.839 8.98C122.573 8.42 123.433 8.14 124.419 8.14C125.033 8.14 125.573 8.22 126.039 8.38C126.506 8.54 126.979 8.73333 127.459 8.96V17.62C127.459 17.8067 127.399 17.96 127.279 18.08C127.159 18.2133 127.013 18.28 126.839 18.28ZM123.399 16.94C123.919 16.94 124.439 16.82 124.959 16.58C125.479 16.3267 125.879 16.06 126.159 15.78L126.239 9.72C126.026 9.62667 125.746 9.54 125.399 9.46C125.066 9.36667 124.753 9.32 124.459 9.32C123.806 9.32 123.206 9.51333 122.659 9.9C122.113 10.2867 121.679 10.82 121.359 11.5C121.053 12.1667 120.899 12.92 120.899 13.76C120.899 14.7333 121.133 15.5067 121.599 16.08C122.066 16.6533 122.666 16.94 123.399 16.94ZM133.412 18.12C132.758 18.12 132.165 17.94 131.632 17.58C131.112 17.22 130.698 16.7 130.392 16.02C130.085 15.3267 129.932 14.52 129.932 13.6C129.932 11.8933 130.312 10.56 131.072 9.6C131.832 8.64 132.878 8.16 134.212 8.16C135.105 8.16 135.992 8.39333 136.872 8.86L136.972 4.88C136.972 4.70667 137.038 4.56 137.172 4.44C137.305 4.30667 137.458 4.24 137.632 4.24C137.792 4.24 137.932 4.30667 138.052 4.44C138.185 4.57333 138.252 4.72667 138.252 4.9L137.952 17.52C137.952 17.6933 137.885 17.84 137.752 17.96C137.632 18.0667 137.485 18.12 137.312 18.12C137.125 18.12 136.972 18.0533 136.852 17.92C136.732 17.7733 136.678 17.6067 136.692 17.42L136.712 16.6C135.672 17.6133 134.572 18.12 133.412 18.12ZM133.432 16.94C134.045 16.94 134.605 16.8133 135.112 16.56C135.618 16.3067 136.012 16.0067 136.292 15.66C136.585 15.3 136.738 14.9867 136.752 14.72L136.852 10.1C136.558 9.92667 136.172 9.76 135.692 9.6C135.225 9.44 134.752 9.36 134.272 9.36C133.245 9.36 132.472 9.72667 131.952 10.46C131.432 11.1933 131.172 12.22 131.172 13.54C131.172 14.6067 131.372 15.44 131.772 16.04C132.185 16.64 132.738 16.94 133.432 16.94ZM147.757 18.28C147.557 18.28 147.404 18.2133 147.297 18.08C147.191 17.96 147.137 17.8067 147.137 17.62V17.06C146.777 17.38 146.344 17.64 145.837 17.84C145.331 18.0267 144.824 18.12 144.317 18.12C143.597 18.12 142.951 17.94 142.377 17.58C141.804 17.22 141.351 16.7133 141.017 16.06C140.697 15.3933 140.537 14.64 140.537 13.8C140.537 12.8933 140.724 12.0067 141.097 11.14C141.484 10.26 142.037 9.54 142.757 8.98C143.491 8.42 144.351 8.14 145.337 8.14C145.951 8.14 146.491 8.22 146.957 8.38C147.424 8.54 147.897 8.73333 148.377 8.96V17.62C148.377 17.8067 148.317 17.96 148.197 18.08C148.077 18.2133 147.931 18.28 147.757 18.28ZM144.317 16.94C144.837 16.94 145.357 16.82 145.877 16.58C146.397 16.3267 146.797 16.06 147.077 15.78L147.157 9.72C146.944 9.62667 146.664 9.54 146.317 9.46C145.984 9.36667 145.671 9.32 145.377 9.32C144.724 9.32 144.124 9.51333 143.577 9.9C143.031 10.2867 142.597 10.82 142.277 11.5C141.971 12.1667 141.817 12.92 141.817 13.76C141.817 14.7333 142.051 15.5067 142.517 16.08C142.984 16.6533 143.584 16.94 144.317 16.94Z" fill="black"/>
<path d="M70.168 67.144C69.224 67.144 68.368 66.952 67.6 66.568C66.848 66.184 66.264 65.664 65.848 65.008C65.432 64.336 65.224 63.584 65.224 62.752C65.24 61.648 65.536 60.752 66.112 60.064C66.704 59.376 67.464 58.792 68.392 58.312C67.656 57.96 67.072 57.52 66.64 56.992C66.208 56.448 65.992 55.768 65.992 54.952C65.992 54.088 66.192 53.336 66.592 52.696C66.992 52.056 67.528 51.568 68.2 51.232C68.888 50.88 69.632 50.704 70.432 50.704C71.264 50.704 72 50.872 72.64 51.208C73.296 51.528 73.808 51.984 74.176 52.576C74.544 53.152 74.728 53.816 74.728 54.568C74.728 55.416 74.496 56.128 74.032 56.704C73.584 57.264 72.984 57.744 72.232 58.144C73.16 58.624 73.872 59.248 74.368 60.016C74.88 60.768 75.136 61.6 75.136 62.512C75.136 63.376 74.92 64.168 74.488 64.888C74.056 65.592 73.464 66.144 72.712 66.544C71.96 66.944 71.112 67.144 70.168 67.144ZM70.312 57.424C71.432 56.992 72.2 56.536 72.616 56.056C73.032 55.576 73.24 55.032 73.24 54.424C73.24 53.752 72.968 53.216 72.424 52.816C71.896 52.416 71.232 52.216 70.432 52.216C69.6 52.216 68.896 52.448 68.32 52.912C67.744 53.376 67.456 54.024 67.456 54.856C67.456 55.48 67.672 55.992 68.104 56.392C68.552 56.792 69.288 57.136 70.312 57.424ZM70.168 65.656C70.744 65.656 71.296 65.544 71.824 65.32C72.368 65.096 72.808 64.752 73.144 64.288C73.496 63.824 73.672 63.256 73.672 62.584C73.672 61.688 73.36 60.944 72.736 60.352C72.112 59.744 71.336 59.288 70.408 58.984C69.56 59.368 68.904 59.696 68.44 59.968C67.992 60.224 67.584 60.592 67.216 61.072C66.864 61.552 66.688 62.16 66.688 62.896C66.688 63.696 67.024 64.36 67.696 64.888C68.368 65.4 69.192 65.656 70.168 65.656ZM89.6952 65.128C89.4872 65.128 89.3112 65.064 89.1672 64.936C89.0232 64.792 88.9512 64.616 88.9512 64.408V61.84H86.3832C86.1752 61.84 85.9992 61.776 85.8552 61.648C85.7112 61.504 85.6392 61.328 85.6392 61.12C85.6392 60.912 85.7112 60.744 85.8552 60.616C85.9992 60.472 86.1752 60.4 86.3832 60.4H88.9512V58.072C88.9512 57.864 89.0232 57.696 89.1672 57.568C89.3112 57.424 89.4872 57.352 89.6952 57.352C89.9032 57.352 90.0712 57.424 90.1992 57.568C90.3432 57.696 90.4152 57.864 90.4152 58.072V60.4H93.0312C93.2232 60.4 93.3912 60.472 93.5352 60.616C93.6792 60.744 93.7512 60.912 93.7512 61.12C93.7512 61.328 93.6792 61.504 93.5352 61.648C93.3912 61.776 93.2232 61.84 93.0312 61.84H90.4152V64.408C90.4152 64.616 90.3432 64.792 90.1992 64.936C90.0712 65.064 89.9032 65.128 89.6952 65.128ZM109.599 67.144C108.687 67.144 107.839 66.944 107.055 66.544C106.287 66.144 105.663 65.496 105.183 64.6C104.703 63.704 104.463 62.552 104.463 61.144C104.463 58.52 105.095 56.376 106.359 54.712C107.623 53.032 109.111 51.768 110.823 50.92C111.015 50.84 111.175 50.8 111.303 50.8C111.511 50.8 111.679 50.864 111.807 50.992C111.935 51.12 111.999 51.288 111.999 51.496C111.999 51.656 111.959 51.792 111.879 51.904C111.815 52.016 111.719 52.096 111.591 52.144C110.439 52.656 109.423 53.368 108.543 54.28C107.663 55.176 107.015 56.184 106.599 57.304C107.655 56.696 108.775 56.392 109.959 56.392C110.823 56.392 111.599 56.584 112.287 56.968C112.975 57.336 113.519 57.888 113.919 58.624C114.335 59.344 114.543 60.224 114.543 61.264C114.543 62.432 114.319 63.464 113.871 64.36C113.439 65.24 112.847 65.928 112.095 66.424C111.343 66.904 110.511 67.144 109.599 67.144ZM109.623 65.704C110.295 65.704 110.895 65.52 111.423 65.152C111.967 64.784 112.391 64.264 112.695 63.592C112.999 62.92 113.151 62.144 113.151 61.264C113.151 60.128 112.855 59.272 112.263 58.696C111.671 58.12 110.903 57.832 109.959 57.832C109.031 57.832 108.231 58.008 107.559 58.36C106.903 58.712 106.383 59.08 105.999 59.464C105.919 59.928 105.879 60.488 105.879 61.144C105.879 62.696 106.215 63.848 106.887 64.6C107.559 65.336 108.471 65.704 109.623 65.704ZM126.23 59.992C126.022 59.992 125.846 59.928 125.702 59.8C125.558 59.656 125.486 59.48 125.486 59.272C125.486 59.064 125.558 58.888 125.702 58.744C125.846 58.584 126.022 58.504 126.23 58.504H132.974C133.182 58.504 133.358 58.584 133.502 58.744C133.662 58.888 133.742 59.064 133.742 59.272C133.742 59.48 133.662 59.656 133.502 59.8C133.358 59.928 133.182 59.992 132.974 59.992H126.23ZM126.23 63.784C126.022 63.784 125.846 63.72 125.702 63.592C125.558 63.448 125.486 63.272 125.486 63.064C125.486 62.856 125.558 62.68 125.702 62.536C125.846 62.392 126.022 62.32 126.23 62.32H132.974C133.182 62.32 133.358 62.392 133.502 62.536C133.662 62.68 133.742 62.856 133.742 63.064C133.742 63.272 133.662 63.448 133.502 63.592C133.358 63.72 133.182 63.784 132.974 63.784H126.23ZM145.5 67C145.292 67 145.116 66.928 144.972 66.784C144.828 66.64 144.756 66.464 144.756 66.256C144.756 66.048 144.828 65.872 144.972 65.728C145.116 65.568 145.292 65.488 145.5 65.488H147.516L147.708 53.464L145.98 55.312C145.836 55.472 145.652 55.552 145.428 55.552C145.22 55.552 145.044 55.48 144.9 55.336C144.756 55.176 144.684 54.992 144.684 54.784C144.684 54.592 144.756 54.424 144.9 54.28L147.924 50.992C147.988 50.928 148.068 50.872 148.164 50.824C148.276 50.776 148.372 50.752 148.452 50.752C148.676 50.752 148.86 50.832 149.004 50.992C149.148 51.136 149.22 51.312 149.22 51.52L149.028 65.488H150.612C150.852 65.488 151.044 65.568 151.188 65.728C151.332 65.872 151.404 66.048 151.404 66.256C151.404 66.464 151.324 66.64 151.164 66.784C151.02 66.928 150.852 67 150.66 67H145.5ZM160.801 67.144C160.593 67.144 160.409 67.072 160.249 66.928C160.105 66.768 160.033 66.592 160.033 66.4V63.208L154.201 63.112C153.993 63.112 153.817 63.04 153.673 62.896C153.529 62.736 153.457 62.56 153.457 62.368C153.457 62.224 153.497 62.088 153.577 61.96L160.129 51.16C160.289 50.904 160.513 50.776 160.801 50.776C161.025 50.776 161.201 50.848 161.329 50.992C161.473 51.12 161.545 51.296 161.545 51.52V61.72L162.289 61.744C162.481 61.744 162.649 61.816 162.793 61.96C162.937 62.104 163.009 62.28 163.009 62.488C163.009 62.696 162.937 62.88 162.793 63.04C162.649 63.184 162.481 63.256 162.289 63.256L161.545 63.232V66.4C161.545 66.592 161.465 66.768 161.305 66.928C161.161 67.072 160.993 67.144 160.801 67.144ZM160.033 54.208L155.545 61.624L160.033 61.696V54.208Z" fill="black"/>
<defs>
<filter id="filter0_d_25_632" x="0" y="34" width="54" height="54" filterUnits="userSpaceOnUse" color-interpolation-filters="sRGB">
<feFlood flood-opacity="0" result="BackgroundImageFix"/>
<feColorMatrix in="SourceAlpha" type="matrix" values="0 0 0 0 0 0 0 0 0 0 0 0 0 0 0 0 0 0 127 0" result="hardAlpha"/>
<feOffset dy="2"/>
<feGaussianBlur stdDeviation="1"/>
<feComposite in2="hardAlpha" operator="out"/>
<feColorMatrix type="matrix" values="0 0 0 0 0 0 0 0 0 0 0 0 0 0 0 0 0 0 0.25 0"/>
<feBlend mode="normal" in2="BackgroundImageFix" result="effect1_dropShadow_25_632"/>
<feBlend mode="normal" in="SourceGraphic" in2="effect1_dropShadow_25_632" result="shape"/>
</filter>
</defs>
</svg>
