<svg width="80" height="130" viewBox="0 0 80 130" fill="none" xmlns="http://www.w3.org/2000/svg">
<g clip-path="url(#clip0_26_646)">
<path d="M51.2001 0.599976H2.0001C1.2269 0.599976 0.600098 1.22678 0.600098 1.99998V16.8C0.600098 17.5732 1.2269 18.2 2.0001 18.2H51.2001C51.9733 18.2 52.6001 17.5732 52.6001 16.8V1.99998C52.6001 1.22678 51.9733 0.599976 51.2001 0.599976Z" fill="#925917"/>
<path d="M10.6561 13.6895C10.5708 13.6895 10.4897 13.6639 10.4129 13.6127C10.3446 13.5615 10.2977 13.4933 10.2721 13.4079L9.2225 10.3615L6.0353 11.0655L5.1009 13.4207C5.0753 13.4975 5.02838 13.5573 4.9601 13.5999C4.89182 13.6511 4.81502 13.6767 4.7297 13.6767C4.61878 13.6767 4.5249 13.6383 4.4481 13.5615C4.37982 13.4847 4.3457 13.3866 4.3457 13.2671C4.3457 13.2159 4.36278 13.1434 4.3969 13.0495L5.1009 11.2447C5.0241 11.2703 4.9473 11.2831 4.8705 11.2831C4.7681 11.2746 4.68278 11.2362 4.6145 11.1679C4.54622 11.0911 4.5121 10.9973 4.5121 10.8863C4.5121 10.7925 4.54198 10.7071 4.6017 10.6303C4.66142 10.5535 4.73398 10.5066 4.8193 10.4895L5.4593 10.3487L7.5073 5.11354C7.54142 5.03674 7.5969 4.97702 7.6737 4.93434C7.7505 4.88314 7.8273 4.85754 7.9041 4.85754C7.98942 4.85754 8.06622 4.88314 8.1345 4.93434C8.20278 4.97702 8.25398 5.04102 8.2881 5.12634L10.9889 12.9855C11.0401 13.1391 11.0657 13.2415 11.0657 13.2927C11.0657 13.3951 11.0273 13.489 10.9505 13.5743C10.8737 13.6511 10.7756 13.6895 10.6561 13.6895ZM8.9409 9.59354L7.8529 6.40634L6.3809 10.1439L8.9409 9.59354ZM13.8159 13.6767C13.705 13.6767 13.6111 13.6383 13.5343 13.5615C13.4575 13.4762 13.4191 13.3781 13.4191 13.2671V5.83034H10.9999C10.889 5.83034 10.7908 5.79194 10.7055 5.71514C10.6287 5.63834 10.5903 5.54446 10.5903 5.43354C10.5903 5.32262 10.6287 5.22874 10.7055 5.15194C10.7908 5.06662 10.889 5.02394 10.9999 5.02394H16.6447C16.7556 5.02394 16.8495 5.06234 16.9263 5.13914C17.0031 5.21594 17.0415 5.31406 17.0415 5.43354C17.0415 5.54446 17.0031 5.63834 16.9263 5.71514C16.8495 5.79194 16.7556 5.83034 16.6447 5.83034H14.2255V13.2671C14.2255 13.3781 14.1828 13.4762 14.0975 13.5615C14.0207 13.6383 13.9268 13.6767 13.8159 13.6767ZM22.7061 13.6895C22.6208 13.6895 22.5397 13.6639 22.4629 13.6127C22.3946 13.5615 22.3477 13.4933 22.3221 13.4079L21.2725 10.3615L18.0853 11.0655L17.1509 13.4207C17.1253 13.4975 17.0784 13.5573 17.0101 13.5999C16.9418 13.6511 16.865 13.6767 16.7797 13.6767C16.6688 13.6767 16.5749 13.6383 16.4981 13.5615C16.4298 13.4847 16.3957 13.3866 16.3957 13.2671C16.3957 13.2159 16.4128 13.1434 16.4469 13.0495L17.1509 11.2447C17.0741 11.2703 16.9973 11.2831 16.9205 11.2831C16.8181 11.2746 16.7328 11.2362 16.6645 11.1679C16.5962 11.0911 16.5621 10.9973 16.5621 10.8863C16.5621 10.7925 16.592 10.7071 16.6517 10.6303C16.7114 10.5535 16.784 10.5066 16.8693 10.4895L17.5093 10.3487L19.5573 5.11354C19.5914 5.03674 19.6469 4.97702 19.7237 4.93434C19.8005 4.88314 19.8773 4.85754 19.9541 4.85754C20.0394 4.85754 20.1162 4.88314 20.1845 4.93434C20.2528 4.97702 20.304 5.04102 20.3381 5.12634L23.0389 12.9855C23.0901 13.1391 23.1157 13.2415 23.1157 13.2927C23.1157 13.3951 23.0773 13.489 23.0005 13.5743C22.9237 13.6511 22.8256 13.6895 22.7061 13.6895ZM20.9909 9.59354L19.9029 6.40634L18.4309 10.1439L20.9909 9.59354ZM31.5141 13.9711C31.4288 13.9711 31.3562 13.9541 31.2965 13.9199L29.8757 12.9727C29.5514 13.2031 29.2016 13.3823 28.8261 13.5103C28.4506 13.6383 28.0709 13.7023 27.6869 13.7023C27.0042 13.7023 26.3856 13.5189 25.8309 13.1519C25.2848 12.785 24.8538 12.2943 24.5381 11.6799C24.2224 11.0655 24.0645 10.3999 24.0645 9.68314C24.0645 8.84686 24.2565 8.06606 24.6405 7.34074C25.033 6.61542 25.5536 6.03942 26.2021 5.61274C26.8506 5.18606 27.5461 4.97274 28.2885 4.97274C28.9712 4.97274 29.5856 5.15622 30.1317 5.52314C30.6864 5.88154 31.1173 6.37222 31.4245 6.99514C31.7402 7.60954 31.8981 8.27514 31.8981 8.99194C31.8981 9.64902 31.7744 10.2762 31.5269 10.8735C31.288 11.4709 30.9509 11.9914 30.5157 12.4351L31.7445 13.2415C31.8554 13.3098 31.9109 13.425 31.9109 13.5871C31.9109 13.7066 31.8682 13.8005 31.7829 13.8687C31.7061 13.937 31.6165 13.9711 31.5141 13.9711ZM27.6869 12.9087C28.216 12.9087 28.7024 12.7679 29.1461 12.4863L28.2117 11.8847C28.0922 11.7909 28.0325 11.6799 28.0325 11.5519C28.0325 11.441 28.0709 11.3471 28.1477 11.2703C28.2245 11.185 28.3141 11.1423 28.4165 11.1423C28.5189 11.1423 28.6 11.1637 28.6597 11.2063L29.8245 11.9743C30.1914 11.5989 30.4816 11.1551 30.6949 10.6431C30.9168 10.1226 31.0277 9.58502 31.0277 9.03034C31.0277 8.46714 30.904 7.93382 30.6565 7.43034C30.409 6.92686 30.0677 6.52154 29.6325 6.21434C29.1973 5.90714 28.7152 5.75354 28.1861 5.75354C27.6229 5.75354 27.0896 5.92846 26.5861 6.27834C26.0912 6.62822 25.6901 7.10182 25.3829 7.69914C25.0842 8.28794 24.9349 8.93222 24.9349 9.63194C24.9349 10.2378 25.0501 10.7925 25.2805 11.2959C25.5194 11.7909 25.848 12.1834 26.2661 12.4735C26.6928 12.7637 27.1664 12.9087 27.6869 12.9087ZM36.8134 13.6767C35.7467 13.6767 34.9233 13.2799 34.343 12.4863C33.7713 11.6842 33.4555 10.5151 33.3958 8.97914C33.3787 8.55246 33.3702 8.05754 33.3702 7.49434L33.383 6.35514C33.3915 6.12474 33.3958 5.78766 33.3958 5.34394C33.3958 5.24154 33.4342 5.15194 33.511 5.07514C33.5963 4.99834 33.6945 4.95994 33.8054 4.95994C33.9249 4.95994 34.0187 4.99834 34.087 5.07514C34.1638 5.15194 34.2022 5.24582 34.2022 5.35674C34.2022 5.77486 34.1979 6.08634 34.1894 6.29114L34.1766 7.22554C34.1766 7.69486 34.1851 8.21966 34.2022 8.79994C34.2449 9.98606 34.4497 10.9759 34.8166 11.7695C35.1921 12.5631 35.8662 12.9599 36.839 12.9599C37.6326 12.9599 38.2555 12.7167 38.7078 12.2303C39.1601 11.7354 39.4374 11.0314 39.5398 10.1183C39.6166 9.38446 39.655 8.51834 39.655 7.51994L39.6422 5.38234C39.6422 5.27142 39.6763 5.17326 39.7446 5.08794C39.8129 5.00262 39.911 4.95994 40.0389 4.95994C40.1585 4.95994 40.2565 5.00262 40.3333 5.08794C40.4101 5.16474 40.4485 5.25434 40.4485 5.35674C40.4485 5.39942 40.4573 5.66394 40.4741 6.15034C40.4913 6.62822 40.4997 7.11034 40.4997 7.59674C40.4997 8.55246 40.4485 9.42714 40.3461 10.2207C40.0477 12.5247 38.8699 13.6767 36.8134 13.6767ZM42.8473 13.5999C42.7365 13.5999 42.6385 13.5573 42.5529 13.4719C42.4677 13.3866 42.4249 13.2885 42.4249 13.1775V5.43354C42.4249 5.32262 42.4633 5.22874 42.5401 5.15194C42.6257 5.06662 42.7281 5.02394 42.8473 5.02394H48.2617C48.3813 5.02394 48.4793 5.06234 48.5561 5.13914C48.6329 5.21594 48.6713 5.31406 48.6713 5.43354C48.6713 5.54446 48.6289 5.64262 48.5433 5.72794C48.4665 5.80474 48.3729 5.84314 48.2617 5.84314H43.2441V8.72314H47.6473C47.7669 8.72314 47.8609 8.76154 47.9289 8.83834C48.0057 8.90662 48.0441 9.00046 48.0441 9.11994C48.0441 9.23942 48.0057 9.34182 47.9289 9.42714C47.8521 9.50394 47.7585 9.54234 47.6473 9.54234H43.2441V12.7807H48.2361C48.3557 12.7807 48.4537 12.8191 48.5305 12.8959C48.6073 12.9727 48.6457 13.0666 48.6457 13.1775C48.6457 13.297 48.6033 13.3994 48.5177 13.4847C48.4409 13.5615 48.3473 13.5999 48.2361 13.5999H42.8473Z" fill="white"/>
<path d="M51.2001 0.599976H2.0001C1.2269 0.599976 0.600098 1.22678 0.600098 1.99998V16.8C0.600098 17.5732 1.2269 18.2 2.0001 18.2H51.2001C51.9733 18.2 52.6001 17.5732 52.6001 16.8V1.99998C52.6001 1.22678 51.9733 0.599976 51.2001 0.599976Z" stroke="#331E05" stroke-width="3"/>
<path d="M78.0001 21.4H2.0001C1.2269 21.4 0.600098 22.0268 0.600098 22.8V58.8C0.600098 59.5732 1.2269 60.2 2.0001 60.2H78.0001C78.7733 60.2 79.4001 59.5732 79.4001 58.8V22.8C79.4001 22.0268 78.7733 21.4 78.0001 21.4Z" fill="#FFF7ED" stroke="black" stroke-width="3"/>
<path d="M59.2001 69.4H2.0001C1.2269 69.4 0.600098 70.0268 0.600098 70.8V85.6C0.600098 86.3732 1.2269 87 2.0001 87H59.2001C59.9733 87 60.6001 86.3732 60.6001 85.6V70.8C60.6001 70.0268 59.9733 69.4 59.2001 69.4Z" fill="#925917"/>
<path d="M5.4849 82.4C5.37398 82.4 5.27582 82.3572 5.1905 82.272C5.10518 82.1868 5.0625 82.0884 5.0625 81.9776V74.2336C5.0625 74.1228 5.1009 74.0288 5.1777 73.952C5.26302 73.8668 5.36542 73.824 5.4849 73.824H10.8993C11.0188 73.824 11.1169 73.8624 11.1937 73.9392C11.2705 74.016 11.3089 74.114 11.3089 74.2336C11.3089 74.3444 11.2662 74.4428 11.1809 74.528C11.1041 74.6048 11.0102 74.6432 10.8993 74.6432H5.8817V77.5232H10.2849C10.4044 77.5232 10.4982 77.5616 10.5665 77.6384C10.6433 77.7068 10.6817 77.8004 10.6817 77.92C10.6817 78.0396 10.6433 78.142 10.5665 78.2272C10.4897 78.304 10.3958 78.3424 10.2849 78.3424H5.8817V81.5808H10.8737C10.9932 81.5808 11.0913 81.6192 11.1681 81.696C11.2449 81.7728 11.2833 81.8668 11.2833 81.9776C11.2833 82.0972 11.2406 82.1996 11.1553 82.2848C11.0785 82.3616 10.9846 82.4 10.8737 82.4H5.4849ZM13.1846 82.4768C13.0737 82.4768 12.9755 82.4384 12.8902 82.3616C12.8134 82.2764 12.775 82.178 12.775 82.0672L12.7878 74.1568C12.7878 74.0544 12.8262 73.9648 12.903 73.888C12.9798 73.8028 13.0737 73.76 13.1846 73.76C13.3211 73.76 13.4363 73.8156 13.5302 73.9264L18.2534 80.7872V74.1568C18.2534 74.046 18.2918 73.952 18.3686 73.8752C18.4539 73.79 18.5521 73.7472 18.663 73.7472C18.7739 73.7472 18.8678 73.79 18.9446 73.8752C19.0299 73.952 19.0726 74.046 19.0726 74.1568V82.0672C19.0726 82.178 19.0342 82.2764 18.9574 82.3616C18.8806 82.4384 18.7825 82.4768 18.663 82.4768C18.6118 82.4768 18.5521 82.4596 18.4838 82.4256C18.4155 82.3916 18.3643 82.3488 18.3302 82.2976L13.607 75.4624L13.5942 82.0672C13.5942 82.178 13.5515 82.2764 13.4662 82.3616C13.3894 82.4384 13.2955 82.4768 13.1846 82.4768ZM21.6224 82.4C21.5115 82.4 21.4133 82.3572 21.328 82.272C21.2427 82.1868 21.2 82.0884 21.2 81.9776V74.2336C21.2 74.1228 21.2384 74.0288 21.3152 73.952C21.4005 73.8668 21.5029 73.824 21.6224 73.824H27.0368C27.1563 73.824 27.2544 73.8624 27.3312 73.9392C27.408 74.016 27.4464 74.114 27.4464 74.2336C27.4464 74.3444 27.4037 74.4428 27.3184 74.528C27.2416 74.6048 27.1477 74.6432 27.0368 74.6432H22.0192V77.5232H26.4224C26.5419 77.5232 26.6357 77.5616 26.704 77.6384C26.7808 77.7068 26.8192 77.8004 26.8192 77.92C26.8192 78.0396 26.7808 78.142 26.704 78.2272C26.6272 78.304 26.5333 78.3424 26.4224 78.3424H22.0192V81.5808H27.0112C27.1307 81.5808 27.2288 81.6192 27.3056 81.696C27.3824 81.7728 27.4208 81.8668 27.4208 81.9776C27.4208 82.0972 27.3781 82.1996 27.2928 82.2848C27.216 82.3616 27.1221 82.4 27.0112 82.4H21.6224ZM29.3221 82.4768C29.2112 82.4768 29.113 82.4384 29.0277 82.3616C28.9509 82.2764 28.9125 82.178 28.9125 82.0672V74.3232C28.9125 74.1612 28.9338 74.0416 28.9765 73.9648C29.0277 73.888 29.1216 73.8368 29.2581 73.8112C29.3946 73.7856 29.6165 73.7728 29.9237 73.7728H30.2949C31.737 73.7728 32.8464 74.0032 33.6229 74.464C34.3994 74.9248 34.7877 75.5776 34.7877 76.4224C34.7877 77.5488 34.0154 78.3852 32.4709 78.9312C32.872 79.1872 33.3114 79.5668 33.7893 80.0704C34.2757 80.5652 34.6981 81.1712 35.0565 81.888C35.0906 81.9308 35.1077 81.9904 35.1077 82.0672C35.1077 82.178 35.0693 82.2764 34.9925 82.3616C34.9157 82.4384 34.8176 82.4768 34.6981 82.4768C34.553 82.4768 34.4336 82.4 34.3397 82.2464C33.145 80.2752 31.9973 79.2896 30.8965 79.2896C30.6149 79.2896 30.2224 79.328 29.7189 79.4048V82.0672C29.7189 82.178 29.6805 82.2764 29.6037 82.3616C29.5269 82.4384 29.433 82.4768 29.3221 82.4768ZM29.7189 78.6112C30.3845 78.594 31.0416 78.5088 31.6901 78.3552C32.3472 78.1932 32.8933 77.95 33.3285 77.6256C33.7637 77.3012 33.9813 76.9004 33.9813 76.4224C33.9813 75.8164 33.657 75.3556 33.0085 75.04C32.36 74.7244 31.4426 74.5664 30.2565 74.5664C30.0176 74.5664 29.8384 74.5708 29.7189 74.5792V78.6112ZM39.9551 82.4896C39.2554 82.4896 38.6068 82.3148 38.0095 81.9648C37.4207 81.6064 36.9514 81.1072 36.6015 80.4672C36.2602 79.8188 36.0895 79.0764 36.0895 78.24C36.0895 77.5148 36.2602 76.8064 36.6015 76.1152C36.9428 75.4156 37.4207 74.8436 38.0351 74.4C38.658 73.9564 39.3663 73.7344 40.1601 73.7344C40.8937 73.7344 41.5125 73.888 42.0161 74.1952C42.5281 74.494 42.9121 74.8396 43.1681 75.232C43.4241 75.6244 43.5521 75.936 43.5521 76.1664C43.5521 76.2772 43.5137 76.3668 43.4369 76.4352C43.3685 76.4948 43.2745 76.5248 43.1553 76.5248C43.0697 76.5248 42.9889 76.5036 42.9121 76.4608C42.8437 76.4096 42.7925 76.3412 42.7585 76.256C42.5793 75.778 42.2761 75.3772 41.8497 75.0528C41.4313 74.72 40.8681 74.5536 40.1601 74.5536C39.426 74.5536 38.8159 74.7668 38.3295 75.1936C37.8431 75.6204 37.4847 76.1236 37.2543 76.704C37.0324 77.2756 36.9215 77.7876 36.9215 78.24C36.9215 78.9396 37.058 79.55 37.3311 80.0704C37.6127 80.5824 37.9839 80.9792 38.4447 81.2608C38.914 81.534 39.4175 81.6704 39.9551 81.6704C40.6549 81.6704 41.2565 81.474 41.7601 81.0816C42.2721 80.6804 42.6177 80.1388 42.7969 79.456H42.4641C42.0289 79.456 41.5893 79.5116 41.1457 79.6224C40.9749 79.6564 40.8769 79.6736 40.8513 79.6736C40.7401 79.6736 40.6465 79.6352 40.5697 79.5584C40.4929 79.4816 40.4545 79.3836 40.4545 79.264C40.4545 79.1788 40.4757 79.102 40.5185 79.0336C40.5697 78.9568 40.6421 78.9012 40.7361 78.8672C40.9237 78.7988 41.1841 78.7436 41.5169 78.7008C41.8497 78.658 42.1781 78.6368 42.5025 78.6368C43.0657 78.6368 43.5349 78.7092 43.9105 78.8544C44.0809 78.9056 44.1665 79.0336 44.1665 79.2384C44.1665 79.3492 44.1281 79.4432 44.0513 79.52C43.9829 79.5884 43.8977 79.6268 43.7953 79.6352C43.7353 79.6352 43.6713 79.6224 43.6033 79.5968C43.3985 80.4416 42.9761 81.1372 42.3361 81.6832C41.6961 82.2208 40.9025 82.4896 39.9551 82.4896ZM45.5337 82.4C45.4141 82.4 45.3117 82.3616 45.2265 82.2848C45.1497 82.208 45.1113 82.114 45.1113 82.0032C45.1113 81.8924 45.1497 81.8028 45.2265 81.7344C45.3117 81.6576 45.4141 81.6192 45.5337 81.6192H46.7497V74.6048H45.5337C45.4141 74.6048 45.3117 74.5664 45.2265 74.4896C45.1497 74.4128 45.1113 74.3188 45.1113 74.208C45.1113 74.0972 45.1497 74.0076 45.2265 73.9392C45.3117 73.8624 45.4141 73.824 45.5337 73.824H48.7721C48.8829 73.824 48.9769 73.8624 49.0537 73.9392C49.1305 74.0076 49.1689 74.0972 49.1689 74.208C49.1689 74.3188 49.1305 74.4128 49.0537 74.4896C48.9769 74.5664 48.8829 74.6048 48.7721 74.6048H47.5689V81.6192H48.7721C48.8913 81.6192 48.9853 81.6576 49.0537 81.7344C49.1305 81.8028 49.1689 81.8924 49.1689 82.0032C49.1689 82.114 49.1305 82.208 49.0537 82.2848C48.9769 82.3616 48.8829 82.4 48.7721 82.4H45.5337ZM56.3061 82.4896C56.2209 82.4896 56.1397 82.464 56.0629 82.4128C55.9945 82.3616 55.9477 82.2932 55.9221 82.208L54.8725 79.1616L51.6853 79.8656L50.7509 82.2208C50.7253 82.2976 50.6785 82.3572 50.6101 82.4C50.5417 82.4512 50.4649 82.4768 50.3797 82.4768C50.2689 82.4768 50.1749 82.4384 50.0981 82.3616C50.0297 82.2848 49.9957 82.1868 49.9957 82.0672C49.9957 82.016 50.0129 81.9436 50.0469 81.8496L50.7509 80.0448C50.6741 80.0704 50.5973 80.0832 50.5205 80.0832C50.4181 80.0748 50.3329 80.0364 50.2645 79.968C50.1961 79.8912 50.1621 79.7972 50.1621 79.6864C50.1621 79.5924 50.1921 79.5072 50.2517 79.4304C50.3113 79.3536 50.3841 79.3068 50.4693 79.2896L51.1093 79.1488L53.1573 73.9136C53.1913 73.8368 53.2469 73.7772 53.3237 73.7344C53.4005 73.6832 53.4773 73.6576 53.5541 73.6576C53.6393 73.6576 53.7161 73.6832 53.7845 73.7344C53.8529 73.7772 53.9041 73.8412 53.9381 73.9264L56.6389 81.7856C56.6901 81.9392 56.7157 82.0416 56.7157 82.0928C56.7157 82.1952 56.6773 82.2892 56.6005 82.3744C56.5237 82.4512 56.4257 82.4896 56.3061 82.4896ZM54.5909 78.3936L53.5029 75.2064L52.0309 78.944L54.5909 78.3936Z" fill="white"/>
<path d="M59.2001 69.4H2.0001C1.2269 69.4 0.600098 70.0268 0.600098 70.8V85.6C0.600098 86.3732 1.2269 87 2.0001 87H59.2001C59.9733 87 60.6001 86.3732 60.6001 85.6V70.8C60.6001 70.0268 59.9733 69.4 59.2001 69.4Z" stroke="#331E05" stroke-width="3"/>
<path d="M78.0001 90.2H2.0001C1.2269 90.2 0.600098 90.8268 0.600098 91.6V127.6C0.600098 128.373 1.2269 129 2.0001 129H78.0001C78.7733 129 79.4001 128.373 79.4001 127.6V91.6C79.4001 90.8268 78.7733 90.2 78.0001 90.2Z" fill="#FFF7ED" stroke="black" stroke-width="3"/>
<path d="M36.9345 46.1153C36.1793 46.1153 35.4944 45.9617 34.88 45.6545C34.2784 45.3473 33.8112 44.9313 33.4784 44.4065C33.1456 43.8689 32.9792 43.2673 32.9792 42.6017C32.992 41.7185 33.2288 41.0017 33.6896 40.4513C34.1632 39.9009 34.7712 39.4337 35.5136 39.0497C34.9248 38.7681 34.4576 38.4161 34.112 37.9937C33.7664 37.5585 33.5936 37.0145 33.5936 36.3617C33.5936 35.6705 33.7536 35.0689 34.0736 34.5569C34.3936 34.0449 34.8225 33.6545 35.3601 33.3857C35.9105 33.1041 36.5057 32.9633 37.1457 32.9633C37.8113 32.9633 38.4001 33.0977 38.9121 33.3665C39.4369 33.6225 39.8465 33.9873 40.1409 34.4609C40.4353 34.9217 40.5825 35.4529 40.5825 36.0545C40.5825 36.7329 40.3969 37.3025 40.0257 37.7633C39.6673 38.2113 39.1873 38.5953 38.5857 38.9153C39.3281 39.2993 39.8977 39.7985 40.2945 40.4129C40.7041 41.0145 40.9089 41.6801 40.9089 42.4097C40.9089 43.1009 40.7361 43.7345 40.3905 44.3105C40.0449 44.8737 39.5713 45.3153 38.9697 45.6353C38.3681 45.9553 37.6897 46.1153 36.9345 46.1153ZM37.0497 38.3393C37.9457 37.9937 38.5601 37.6289 38.8929 37.2449C39.2257 36.8609 39.3921 36.4257 39.3921 35.9393C39.3921 35.4017 39.1745 34.9729 38.7393 34.6529C38.3169 34.3329 37.7857 34.1729 37.1457 34.1729C36.4801 34.1729 35.9169 34.3585 35.4561 34.7297C34.9952 35.1009 34.7649 35.6193 34.7649 36.2849C34.7649 36.7841 34.9377 37.1937 35.2833 37.5137C35.6417 37.8337 36.2305 38.1089 37.0497 38.3393ZM36.9345 44.9249C37.3953 44.9249 37.8369 44.8353 38.2593 44.6561C38.6945 44.4769 39.0465 44.2017 39.3153 43.8305C39.5969 43.4593 39.7377 43.0049 39.7377 42.4673C39.7377 41.7505 39.4881 41.1553 38.9889 40.6817C38.4897 40.1953 37.8689 39.8305 37.1265 39.5873C36.4481 39.8945 35.9232 40.1569 35.552 40.3745C35.1936 40.5793 34.8672 40.8737 34.5728 41.2577C34.2912 41.6417 34.1504 42.1281 34.1504 42.7169C34.1504 43.3569 34.4192 43.8881 34.9568 44.3105C35.4944 44.7201 36.1537 44.9249 36.9345 44.9249Z" fill="black"/>
<path d="M37.2416 114.915C36.512 114.915 35.8336 114.755 35.2064 114.435C34.592 114.115 34.0928 113.597 33.7088 112.88C33.3248 112.163 33.1328 111.242 33.1328 110.115C33.1328 108.016 33.6384 106.301 34.6496 104.97C35.6608 103.626 36.8512 102.614 38.2208 101.936C38.3744 101.872 38.5024 101.84 38.6048 101.84C38.7712 101.84 38.9056 101.891 39.008 101.994C39.1104 102.096 39.1616 102.23 39.1616 102.397C39.1616 102.525 39.1296 102.634 39.0656 102.723C39.0144 102.813 38.9376 102.877 38.8352 102.915C37.9136 103.325 37.1008 103.894 36.3968 104.624C35.6928 105.341 35.1744 106.147 34.8416 107.043C35.6864 106.557 36.5824 106.314 37.5296 106.314C38.2208 106.314 38.8416 106.467 39.392 106.774C39.9424 107.069 40.3776 107.51 40.6976 108.099C41.0304 108.675 41.1968 109.379 41.1968 110.211C41.1968 111.146 41.0176 111.971 40.6592 112.688C40.3136 113.392 39.84 113.942 39.2384 114.339C38.6368 114.723 37.9712 114.915 37.2416 114.915ZM37.2608 113.763C37.7984 113.763 38.2784 113.616 38.7008 113.322C39.136 113.027 39.4752 112.611 39.7184 112.074C39.9616 111.536 40.0832 110.915 40.0832 110.211C40.0832 109.302 39.8464 108.618 39.3728 108.157C38.8992 107.696 38.2848 107.466 37.5296 107.466C36.7872 107.466 36.1472 107.606 35.6096 107.888C35.0848 108.17 34.6688 108.464 34.3616 108.771C34.2976 109.142 34.2656 109.59 34.2656 110.115C34.2656 111.357 34.5344 112.278 35.072 112.88C35.6096 113.469 36.3392 113.763 37.2608 113.763Z" fill="black"/>
</g>
<defs>
<clipPath id="clip0_26_646">
<rect width="80" height="129.6" fill="white"/>
</clipPath>
</defs>
</svg>
