<svg width="80" height="128" viewBox="0 0 80 128" fill="none" xmlns="http://www.w3.org/2000/svg">
<g clip-path="url(#clip0_25_635)">
<path d="M51.2001 0.592651H2.0001C1.2269 0.592651 0.600098 1.21171 0.600098 1.97537V16.5927C0.600098 17.3563 1.2269 17.9754 2.0001 17.9754H51.2001C51.9733 17.9754 52.6001 17.3563 52.6001 16.5927V1.97537C52.6001 1.21171 51.9733 0.592651 51.2001 0.592651Z" fill="#925917"/>
<path d="M10.6561 13.5206C10.5708 13.5206 10.4897 13.4953 10.4129 13.4447C10.3446 13.3941 10.2977 13.3267 10.2721 13.2424L9.2225 10.2337L6.0353 10.929L5.1009 13.2551C5.0753 13.3309 5.02838 13.3899 4.9601 13.4321C4.89182 13.4826 4.81502 13.5079 4.7297 13.5079C4.61878 13.5079 4.5249 13.47 4.4481 13.3941C4.37982 13.3183 4.3457 13.2214 4.3457 13.1034C4.3457 13.0528 4.36278 12.9812 4.3969 12.8885L5.1009 11.106C5.0241 11.1312 4.9473 11.1439 4.8705 11.1439C4.7681 11.1355 4.68278 11.0975 4.6145 11.0301C4.54622 10.9542 4.5121 10.8615 4.5121 10.752C4.5121 10.6593 4.54198 10.575 4.6017 10.4991C4.66142 10.4233 4.73398 10.3769 4.8193 10.3601L5.4593 10.221L7.5073 5.05045C7.54142 4.9746 7.5969 4.91561 7.6737 4.87346C7.7505 4.82289 7.8273 4.79761 7.9041 4.79761C7.98942 4.79761 8.06622 4.82289 8.1345 4.87346C8.20278 4.91561 8.25398 4.97882 8.2881 5.06309L10.9889 12.8253C11.0401 12.977 11.0657 13.0781 11.0657 13.1287C11.0657 13.2298 11.0273 13.3225 10.9505 13.4068C10.8737 13.4826 10.7756 13.5206 10.6561 13.5206ZM8.9409 9.47514L7.8529 6.32729L6.3809 10.0187L8.9409 9.47514ZM13.8159 13.5079C13.705 13.5079 13.6111 13.47 13.5343 13.3941C13.4575 13.3099 13.4191 13.2129 13.4191 13.1034V5.7584H10.9999C10.889 5.7584 10.7908 5.72047 10.7055 5.64462C10.6287 5.56877 10.5903 5.47605 10.5903 5.3665C10.5903 5.25695 10.6287 5.16422 10.7055 5.08837C10.7908 5.00411 10.889 4.96195 10.9999 4.96195H16.6447C16.7556 4.96195 16.8495 4.99988 16.9263 5.07573C17.0031 5.15158 17.0415 5.24849 17.0415 5.3665C17.0415 5.47605 17.0031 5.56877 16.9263 5.64462C16.8495 5.72047 16.7556 5.7584 16.6447 5.7584H14.2255V13.1034C14.2255 13.2129 14.1828 13.3099 14.0975 13.3941C14.0207 13.47 13.9268 13.5079 13.8159 13.5079ZM22.7061 13.5206C22.6208 13.5206 22.5397 13.4953 22.4629 13.4447C22.3946 13.3941 22.3477 13.3267 22.3221 13.2424L21.2725 10.2337L18.0853 10.929L17.1509 13.2551C17.1253 13.3309 17.0784 13.3899 17.0101 13.4321C16.9418 13.4826 16.865 13.5079 16.7797 13.5079C16.6688 13.5079 16.5749 13.47 16.4981 13.3941C16.4298 13.3183 16.3957 13.2214 16.3957 13.1034C16.3957 13.0528 16.4128 12.9812 16.4469 12.8885L17.1509 11.106C17.0741 11.1312 16.9973 11.1439 16.9205 11.1439C16.8181 11.1355 16.7328 11.0975 16.6645 11.0301C16.5962 10.9542 16.5621 10.8615 16.5621 10.752C16.5621 10.6593 16.592 10.575 16.6517 10.4991C16.7114 10.4233 16.784 10.3769 16.8693 10.3601L17.5093 10.221L19.5573 5.05045C19.5914 4.9746 19.6469 4.91561 19.7237 4.87346C19.8005 4.82289 19.8773 4.79761 19.9541 4.79761C20.0394 4.79761 20.1162 4.82289 20.1845 4.87346C20.2528 4.91561 20.304 4.97882 20.3381 5.06309L23.0389 12.8253C23.0901 12.977 23.1157 13.0781 23.1157 13.1287C23.1157 13.2298 23.0773 13.3225 23.0005 13.4068C22.9237 13.4826 22.8256 13.5206 22.7061 13.5206ZM20.9909 9.47514L19.9029 6.32729L18.4309 10.0187L20.9909 9.47514ZM31.5141 13.7987C31.4288 13.7987 31.3562 13.7818 31.2965 13.7481L29.8757 12.8126C29.5514 13.0402 29.2016 13.2172 28.8261 13.3436C28.4506 13.47 28.0709 13.5332 27.6869 13.5332C27.0042 13.5332 26.3856 13.352 25.8309 12.9896C25.2848 12.6272 24.8538 12.1426 24.5381 11.5358C24.2224 10.929 24.0645 10.2716 24.0645 9.56363C24.0645 8.73768 24.2565 7.96652 24.6405 7.25015C25.033 6.53378 25.5536 5.9649 26.2021 5.54348C26.8506 5.12207 27.5461 4.91139 28.2885 4.91139C28.9712 4.91139 29.5856 5.0926 30.1317 5.45499C30.6864 5.80897 31.1173 6.29359 31.4245 6.90882C31.7402 7.51563 31.8981 8.17301 31.8981 8.88096C31.8981 9.52993 31.7744 10.1494 31.5269 10.7393C31.288 11.3293 30.9509 11.8434 30.5157 12.2817L31.7445 13.0781C31.8554 13.1455 31.9109 13.2593 31.9109 13.4194C31.9109 13.5374 31.8682 13.6301 31.7829 13.6976C31.7061 13.765 31.6165 13.7987 31.5141 13.7987ZM27.6869 12.7494C28.216 12.7494 28.7024 12.6103 29.1461 12.3322L28.2117 11.7381C28.0922 11.6453 28.0325 11.5358 28.0325 11.4094C28.0325 11.2998 28.0709 11.2071 28.1477 11.1312C28.2245 11.047 28.3141 11.0048 28.4165 11.0048C28.5189 11.0048 28.6 11.0259 28.6597 11.068L29.8245 11.8265C30.1914 11.4557 30.4816 11.0175 30.6949 10.5118C30.9168 9.99769 31.0277 9.46672 31.0277 8.91889C31.0277 8.36264 30.904 7.83591 30.6565 7.33864C30.409 6.84138 30.0677 6.44106 29.6325 6.13766C29.1973 5.83425 28.7152 5.68255 28.1861 5.68255C27.6229 5.68255 27.0896 5.85531 26.5861 6.20087C26.0912 6.54643 25.6901 7.01418 25.3829 7.60413C25.0842 8.18566 24.9349 8.82198 24.9349 9.51306C24.9349 10.1115 25.0501 10.6593 25.2805 11.1565C25.5194 11.6453 25.848 12.033 26.2661 12.3196C26.6928 12.6061 27.1664 12.7494 27.6869 12.7494ZM36.8134 13.5079C35.7467 13.5079 34.9233 13.116 34.343 12.3322C33.7713 11.54 33.4555 10.3854 33.3958 8.86832C33.3787 8.44691 33.3702 7.9581 33.3702 7.40185L33.383 6.27672C33.3915 6.04916 33.3958 5.71624 33.3958 5.278C33.3958 5.17687 33.4342 5.08837 33.511 5.01252C33.5963 4.93667 33.6945 4.89874 33.8054 4.89874C33.9249 4.89874 34.0187 4.93667 34.087 5.01252C34.1638 5.08837 34.2022 5.18109 34.2022 5.29064C34.2022 5.7036 34.1979 6.01124 34.1894 6.21351L34.1766 7.13637C34.1766 7.5999 34.1851 8.11822 34.2022 8.69134C34.2449 9.86281 34.4497 10.8405 34.8166 11.6243C35.1921 12.4081 35.8662 12.8 36.839 12.8C37.6326 12.8 38.2555 12.5598 38.7078 12.0794C39.1601 11.5906 39.4374 10.8953 39.5398 9.99346C39.6166 9.26864 39.655 8.41321 39.655 7.42714L39.6422 5.31593C39.6422 5.20638 39.6763 5.10943 39.7446 5.02516C39.8129 4.9409 39.911 4.89874 40.0389 4.89874C40.1585 4.89874 40.2565 4.9409 40.3333 5.02516C40.4101 5.10101 40.4485 5.18951 40.4485 5.29064C40.4485 5.3328 40.4573 5.59405 40.4741 6.07445C40.4913 6.54643 40.4997 7.02259 40.4997 7.50299C40.4997 8.44691 40.4485 9.31079 40.3461 10.0946C40.0477 12.3701 38.8699 13.5079 36.8134 13.5079ZM42.8473 13.4321C42.7365 13.4321 42.6385 13.3899 42.5529 13.3057C42.4677 13.2214 42.4249 13.1244 42.4249 13.0149V5.3665C42.4249 5.25695 42.4633 5.16422 42.5401 5.08837C42.6257 5.00411 42.7281 4.96195 42.8473 4.96195H48.2617C48.3813 4.96195 48.4793 4.99988 48.5561 5.07573C48.6329 5.15158 48.6713 5.24849 48.6713 5.3665C48.6713 5.47605 48.6289 5.57299 48.5433 5.65726C48.4665 5.73311 48.3729 5.77104 48.2617 5.77104H43.2441V8.61548H47.6473C47.7669 8.61548 47.8609 8.65341 47.9289 8.72926C48.0057 8.7967 48.0441 8.88938 48.0441 9.00738C48.0441 9.12539 48.0057 9.22653 47.9289 9.31079C47.8521 9.38664 47.7585 9.42457 47.6473 9.42457H43.2441V12.623H48.2361C48.3557 12.623 48.4537 12.6609 48.5305 12.7368C48.6073 12.8126 48.6457 12.9053 48.6457 13.0149C48.6457 13.1329 48.6033 13.234 48.5177 13.3183C48.4409 13.3941 48.3473 13.4321 48.2361 13.4321H42.8473Z" fill="white"/>
<path d="M51.2001 0.592651H2.0001C1.2269 0.592651 0.600098 1.21171 0.600098 1.97537V16.5927C0.600098 17.3563 1.2269 17.9754 2.0001 17.9754H51.2001C51.9733 17.9754 52.6001 17.3563 52.6001 16.5927V1.97537C52.6001 1.21171 51.9733 0.592651 51.2001 0.592651Z" stroke="#331E05" stroke-width="3"/>
<path d="M78.0001 21.1357H2.0001C1.2269 21.1357 0.600098 21.7548 0.600098 22.5185V58.074C0.600098 58.8377 1.2269 59.4567 2.0001 59.4567H78.0001C78.7733 59.4567 79.4001 58.8377 79.4001 58.074V22.5185C79.4001 21.7548 78.7733 21.1357 78.0001 21.1357Z" fill="#FFF7ED" stroke="black" stroke-width="3"/>
<path d="M59.2001 68.5432H2.0001C1.2269 68.5432 0.600098 69.1623 0.600098 69.9259V84.5432C0.600098 85.3069 1.2269 85.9259 2.0001 85.9259H59.2001C59.9733 85.9259 60.6001 85.3069 60.6001 84.5432V69.9259C60.6001 69.1623 59.9733 68.5432 59.2001 68.5432Z" fill="#925917"/>
<path d="M5.4849 81.3828C5.37398 81.3828 5.27582 81.3405 5.1905 81.2563C5.10518 81.1722 5.0625 81.075 5.0625 80.9656V73.3172C5.0625 73.2077 5.1009 73.1149 5.1777 73.0391C5.26302 72.9549 5.36542 72.9126 5.4849 72.9126H10.8993C11.0188 72.9126 11.1169 72.9506 11.1937 73.0264C11.2705 73.1023 11.3089 73.1991 11.3089 73.3172C11.3089 73.4266 11.2662 73.5238 11.1809 73.6079C11.1041 73.6838 11.0102 73.7217 10.8993 73.7217H5.8817V76.5662H10.2849C10.4044 76.5662 10.4982 76.6041 10.5665 76.6799C10.6433 76.7475 10.6817 76.8399 10.6817 76.9581C10.6817 77.0762 10.6433 77.1773 10.5665 77.2615C10.4897 77.3373 10.3958 77.3753 10.2849 77.3753H5.8817V80.5737H10.8737C10.9932 80.5737 11.0913 80.6116 11.1681 80.6875C11.2449 80.7633 11.2833 80.8561 11.2833 80.9656C11.2833 81.0837 11.2406 81.1848 11.1553 81.269C11.0785 81.3448 10.9846 81.3828 10.8737 81.3828H5.4849ZM13.1846 81.4586C13.0737 81.4586 12.9755 81.4207 12.8902 81.3448C12.8134 81.2607 12.775 81.1635 12.775 81.0541L12.7878 73.2413C12.7878 73.1402 12.8262 73.0517 12.903 72.9758C12.9798 72.8917 13.0737 72.8494 13.1846 72.8494C13.3211 72.8494 13.4363 72.9043 13.5302 73.0138L18.2534 79.7899V73.2413C18.2534 73.1319 18.2918 73.0391 18.3686 72.9632C18.4539 72.8791 18.5521 72.8368 18.663 72.8368C18.7739 72.8368 18.8678 72.8791 18.9446 72.9632C19.0299 73.0391 19.0726 73.1319 19.0726 73.2413V81.0541C19.0726 81.1635 19.0342 81.2607 18.9574 81.3448C18.8806 81.4207 18.7825 81.4586 18.663 81.4586C18.6118 81.4586 18.5521 81.4416 18.4838 81.408C18.4155 81.3745 18.3643 81.3322 18.3302 81.2816L13.607 74.5308L13.5942 81.0541C13.5942 81.1635 13.5515 81.2607 13.4662 81.3448C13.3894 81.4207 13.2955 81.4586 13.1846 81.4586ZM21.6224 81.3828C21.5115 81.3828 21.4133 81.3405 21.328 81.2563C21.2427 81.1722 21.2 81.075 21.2 80.9656V73.3172C21.2 73.2077 21.2384 73.1149 21.3152 73.0391C21.4005 72.9549 21.5029 72.9126 21.6224 72.9126H27.0368C27.1563 72.9126 27.2544 72.9506 27.3312 73.0264C27.408 73.1023 27.4464 73.1991 27.4464 73.3172C27.4464 73.4266 27.4037 73.5238 27.3184 73.6079C27.2416 73.6838 27.1477 73.7217 27.0368 73.7217H22.0192V76.5662H26.4224C26.5419 76.5662 26.6357 76.6041 26.704 76.6799C26.7808 76.7475 26.8192 76.8399 26.8192 76.9581C26.8192 77.0762 26.7808 77.1773 26.704 77.2615C26.6272 77.3373 26.5333 77.3753 26.4224 77.3753H22.0192V80.5737H27.0112C27.1307 80.5737 27.2288 80.6116 27.3056 80.6875C27.3824 80.7633 27.4208 80.8561 27.4208 80.9656C27.4208 81.0837 27.3781 81.1848 27.2928 81.269C27.216 81.3448 27.1221 81.3828 27.0112 81.3828H21.6224ZM29.3221 81.4586C29.2112 81.4586 29.113 81.4207 29.0277 81.3448C28.9509 81.2607 28.9125 81.1635 28.9125 81.0541V73.4057C28.9125 73.2457 28.9338 73.1276 28.9765 73.0517C29.0277 72.9758 29.1216 72.9253 29.2581 72.9C29.3946 72.8747 29.6165 72.8621 29.9237 72.8621H30.2949C31.737 72.8621 32.8464 73.0896 33.6229 73.5447C34.3994 73.9998 34.7877 74.6446 34.7877 75.479C34.7877 76.5915 34.0154 77.4175 32.4709 77.9568C32.872 78.2096 33.3114 78.5845 33.7893 79.0819C34.2757 79.5706 34.6981 80.1691 35.0565 80.8771C35.0906 80.9194 35.1077 80.9782 35.1077 81.0541C35.1077 81.1635 35.0693 81.2607 34.9925 81.3448C34.9157 81.4207 34.8176 81.4586 34.6981 81.4586C34.553 81.4586 34.4336 81.3828 34.3397 81.2311C33.145 79.2842 31.9973 78.3108 30.8965 78.3108C30.6149 78.3108 30.2224 78.3487 29.7189 78.4245V81.0541C29.7189 81.1635 29.6805 81.2607 29.6037 81.3448C29.5269 81.4207 29.433 81.4586 29.3221 81.4586ZM29.7189 77.6407C30.3845 77.6237 31.0416 77.5396 31.6901 77.3879C32.3472 77.2279 32.8933 76.9877 33.3285 76.6673C33.7637 76.3469 33.9813 75.9511 33.9813 75.479C33.9813 74.8804 33.657 74.4253 33.0085 74.1136C32.36 73.8019 31.4426 73.6459 30.2565 73.6459C30.0176 73.6459 29.8384 73.6502 29.7189 73.6585V77.6407ZM39.9551 81.4713C39.2554 81.4713 38.6068 81.2986 38.0095 80.9529C37.4207 80.599 36.9514 80.1059 36.6015 79.4738C36.2602 78.8334 36.0895 78.1002 36.0895 77.2741C36.0895 76.5579 36.2602 75.8582 36.6015 75.1755C36.9428 74.4846 37.4207 73.9196 38.0351 73.4815C38.658 73.0434 39.3663 72.8241 40.1601 72.8241C40.8937 72.8241 41.5125 72.9759 42.0161 73.2793C42.5281 73.5744 42.9121 73.9157 43.1681 74.3033C43.4241 74.6908 43.5521 74.9986 43.5521 75.2261C43.5521 75.3356 43.5137 75.424 43.4369 75.4916C43.3685 75.5505 43.2745 75.5801 43.1553 75.5801C43.0697 75.5801 42.9889 75.5592 42.9121 75.5169C42.8437 75.4663 42.7925 75.3988 42.7585 75.3146C42.5793 74.8425 42.2761 74.4467 41.8497 74.1263C41.4313 73.7976 40.8681 73.6332 40.1601 73.6332C39.426 73.6332 38.8159 73.8438 38.3295 74.2653C37.8431 74.6869 37.4847 75.1838 37.2543 75.7571C37.0324 76.3216 36.9215 76.8273 36.9215 77.2741C36.9215 77.9651 37.058 78.5679 37.3311 79.0819C37.6127 79.5876 37.9839 79.9795 38.4447 80.2576C38.914 80.5274 39.4175 80.6622 39.9551 80.6622C40.6549 80.6622 41.2565 80.4682 41.7601 80.0806C42.2721 79.6844 42.6177 79.1495 42.7969 78.4751H42.4641C42.0289 78.4751 41.5893 78.53 41.1457 78.6395C40.9749 78.673 40.8769 78.69 40.8513 78.69C40.7401 78.69 40.6465 78.6521 40.5697 78.5762C40.4929 78.5004 40.4545 78.4036 40.4545 78.2855C40.4545 78.2013 40.4757 78.1255 40.5185 78.0579C40.5697 77.9821 40.6421 77.9272 40.7361 77.8936C40.9237 77.826 41.1841 77.7715 41.5169 77.7292C41.8497 77.687 42.1781 77.666 42.5025 77.666C43.0657 77.666 43.5349 77.7375 43.9105 77.8809C44.0809 77.9315 44.1665 78.0579 44.1665 78.2602C44.1665 78.3696 44.1281 78.4625 44.0513 78.5383C43.9829 78.6059 43.8977 78.6438 43.7953 78.6521C43.7353 78.6521 43.6713 78.6395 43.6033 78.6142C43.3985 79.4485 42.9761 80.1355 42.3361 80.6748C41.6961 81.2058 40.9025 81.4713 39.9551 81.4713ZM45.5337 81.3828C45.4141 81.3828 45.3117 81.3448 45.2265 81.269C45.1497 81.1931 45.1113 81.1003 45.1113 80.9909C45.1113 80.8814 45.1497 80.7929 45.2265 80.7254C45.3117 80.6495 45.4141 80.6116 45.5337 80.6116H46.7497V73.6838H45.5337C45.4141 73.6838 45.3117 73.6459 45.2265 73.57C45.1497 73.4942 45.1113 73.4013 45.1113 73.2919C45.1113 73.1825 45.1497 73.094 45.2265 73.0264C45.3117 72.9506 45.4141 72.9126 45.5337 72.9126H48.7721C48.8829 72.9126 48.9769 72.9506 49.0537 73.0264C49.1305 73.094 49.1689 73.1825 49.1689 73.2919C49.1689 73.4013 49.1305 73.4942 49.0537 73.57C48.9769 73.6459 48.8829 73.6838 48.7721 73.6838H47.5689V80.6116H48.7721C48.8913 80.6116 48.9853 80.6495 49.0537 80.7254C49.1305 80.7929 49.1689 80.8814 49.1689 80.9909C49.1689 81.1003 49.1305 81.1931 49.0537 81.269C48.9769 81.3448 48.8829 81.3828 48.7721 81.3828H45.5337ZM56.3061 81.4713C56.2209 81.4713 56.1397 81.446 56.0629 81.3954C55.9945 81.3448 55.9477 81.2773 55.9221 81.1931L54.8725 78.1843L51.6853 78.8796L50.7509 81.2058C50.7253 81.2816 50.6785 81.3405 50.6101 81.3828C50.5417 81.4333 50.4649 81.4586 50.3797 81.4586C50.2689 81.4586 50.1749 81.4207 50.0981 81.3448C50.0297 81.269 49.9957 81.1722 49.9957 81.0541C49.9957 81.0035 50.0129 80.932 50.0469 80.8392L50.7509 79.0566C50.6741 79.0819 50.5973 79.0946 50.5205 79.0946C50.4181 79.0863 50.3329 79.0483 50.2645 78.9808C50.1961 78.9049 50.1621 78.8121 50.1621 78.7027C50.1621 78.6098 50.1921 78.5257 50.2517 78.4498C50.3113 78.374 50.3841 78.3277 50.4693 78.3108L51.1093 78.1717L53.1573 73.0011C53.1913 72.9253 53.2469 72.8664 53.3237 72.8241C53.4005 72.7736 53.4773 72.7483 53.5541 72.7483C53.6393 72.7483 53.7161 72.7736 53.7845 72.8241C53.8529 72.8664 53.9041 72.9296 53.9381 73.0138L56.6389 80.7759C56.6901 80.9276 56.7157 81.0288 56.7157 81.0793C56.7157 81.1805 56.6773 81.2733 56.6005 81.3575C56.5237 81.4333 56.4257 81.4713 56.3061 81.4713ZM54.5909 77.4258L53.5029 74.278L52.0309 77.9694L54.5909 77.4258Z" fill="white"/>
<path d="M59.2001 68.5432H2.0001C1.2269 68.5432 0.600098 69.1623 0.600098 69.9259V84.5432C0.600098 85.3069 1.2269 85.9259 2.0001 85.9259H59.2001C59.9733 85.9259 60.6001 85.3069 60.6001 84.5432V69.9259C60.6001 69.1623 59.9733 68.5432 59.2001 68.5432Z" stroke="#331E05" stroke-width="3"/>
<path d="M78.0001 89.0864H2.0001C1.2269 89.0864 0.600098 89.7055 0.600098 90.4691V126.025C0.600098 126.788 1.2269 127.407 2.0001 127.407H78.0001C78.7733 127.407 79.4001 126.788 79.4001 126.025V90.4691C79.4001 89.7055 78.7733 89.0864 78.0001 89.0864Z" fill="#FFF7ED" stroke="black" stroke-width="3"/>
<path d="M33.8625 45.432C33.6961 45.432 33.5553 45.3752 33.4401 45.2614C33.3249 45.1476 33.2673 45.0085 33.2673 44.8442C33.2673 44.6798 33.3249 44.5408 33.4401 44.427C33.5553 44.3006 33.6961 44.2374 33.8625 44.2374H35.4753L35.6289 34.7369L34.2465 36.1971C34.1313 36.3235 33.9841 36.3867 33.8049 36.3867C33.6385 36.3867 33.4977 36.3298 33.3825 36.216C33.2673 36.0896 33.2097 35.9442 33.2097 35.7799C33.2097 35.6282 33.2673 35.4954 33.3825 35.3817L35.8017 32.7837C35.8529 32.7332 35.9169 32.6889 35.9937 32.651C36.0833 32.6131 36.1601 32.5941 36.2241 32.5941C36.4033 32.5941 36.5505 32.6573 36.6657 32.7837C36.7809 32.8975 36.8385 33.0366 36.8385 33.2009L36.6849 44.2374H37.9521C38.1441 44.2374 38.2977 44.3006 38.4129 44.427C38.5281 44.5408 38.5857 44.6798 38.5857 44.8442C38.5857 45.0085 38.5217 45.1476 38.3937 45.2614C38.2785 45.3752 38.1441 45.432 37.9905 45.432H33.8625ZM41.4749 45.432C41.3085 45.432 41.1677 45.3752 41.0525 45.2614C40.9373 45.1476 40.8797 45.0085 40.8797 44.8442C40.8797 44.6798 40.9373 44.5408 41.0525 44.427C41.1677 44.3006 41.3085 44.2374 41.4749 44.2374H43.0877L43.2413 34.7369L41.8589 36.1971C41.7437 36.3235 41.5965 36.3867 41.4173 36.3867C41.2509 36.3867 41.1101 36.3298 40.9949 36.216C40.8797 36.0896 40.8221 35.9442 40.8221 35.7799C40.8221 35.6282 40.8797 35.4954 40.9949 35.3817L43.4141 32.7837C43.4653 32.7332 43.5293 32.6889 43.6061 32.651C43.6957 32.6131 43.7725 32.5941 43.8365 32.5941C44.0157 32.5941 44.1629 32.6573 44.2781 32.7837C44.3933 32.8975 44.4509 33.0366 44.4509 33.2009L44.2973 44.2374H45.5645C45.7565 44.2374 45.9101 44.3006 46.0253 44.427C46.1405 44.5408 46.1981 44.6798 46.1981 44.8442C46.1981 45.0085 46.1341 45.1476 46.0061 45.2614C45.8909 45.3752 45.7565 45.432 45.6029 45.432H41.4749Z" fill="black"/>
<path d="M35.5328 113.497C35.3664 113.497 35.2256 113.446 35.1104 113.345C35.008 113.231 34.9568 113.098 34.9568 112.947C34.9568 112.694 35.0656 112.517 35.2832 112.416C36.2048 111.973 37.0176 111.404 37.7216 110.709C38.4384 110.001 38.9632 109.217 39.296 108.358C38.4512 108.838 37.5552 109.078 36.608 109.078C35.9168 109.078 35.2896 108.933 34.7264 108.642C34.176 108.339 33.7344 107.896 33.4016 107.315C33.0816 106.733 32.9216 106.038 32.9216 105.229C32.9216 104.306 33.0944 103.49 33.44 102.782C33.7984 102.075 34.2784 101.531 34.88 101.152C35.4816 100.772 36.1536 100.583 36.896 100.583C38.1248 100.583 39.1104 100.981 39.8528 101.777C40.608 102.574 40.9856 103.756 40.9856 105.324C40.9856 107.321 40.4928 108.983 39.5072 110.311C38.5344 111.638 37.3312 112.668 35.8976 113.402C35.7696 113.465 35.648 113.497 35.5328 113.497ZM36.608 107.94C37.3504 107.94 37.984 107.801 38.5088 107.523C39.0464 107.245 39.4688 106.954 39.776 106.651C39.8272 106.259 39.8528 105.817 39.8528 105.324C39.8528 103.996 39.5648 103.067 38.9888 102.536C38.4256 101.992 37.7152 101.721 36.8576 101.721C36.32 101.721 35.8336 101.866 35.3984 102.157C34.976 102.447 34.6432 102.858 34.4 103.389C34.1696 103.92 34.0544 104.533 34.0544 105.229C34.0544 106.101 34.2912 106.771 34.7648 107.239C35.2384 107.707 35.8528 107.94 36.608 107.94Z" fill="black"/>
</g>
<defs>
<clipPath id="clip0_25_635">
<rect width="80" height="128" fill="white"/>
</clipPath>
</defs>
</svg>
